# AI4E VizReport sample: CD nozzle geometry (GEO · mesh, pure geometry)
v 0.620000 0.000000 0.000000
v 0.614696 0.080926 0.000000
v 0.598874 0.160468 0.000000
v 0.572805 0.237264 0.000000
v 0.536936 0.310000 0.000000
v 0.491879 0.377432 0.000000
v 0.438406 0.438406 0.000000
v 0.377432 0.491879 0.000000
v 0.310000 0.536936 0.000000
v 0.237264 0.572805 0.000000
v 0.160468 0.598874 0.000000
v 0.080926 0.614696 0.000000
v 0.000000 0.620000 0.000000
v -0.080926 0.614696 0.000000
v -0.160468 0.598874 0.000000
v -0.237264 0.572805 0.000000
v -0.310000 0.536936 0.000000
v -0.377432 0.491879 0.000000
v -0.438406 0.438406 0.000000
v -0.491879 0.377432 0.000000
v -0.536936 0.310000 0.000000
v -0.572805 0.237264 0.000000
v -0.598874 0.160468 0.000000
v -0.614696 0.080926 0.000000
v -0.620000 0.000000 0.000000
v -0.614696 -0.080926 0.000000
v -0.598874 -0.160468 0.000000
v -0.572805 -0.237264 0.000000
v -0.536936 -0.310000 0.000000
v -0.491879 -0.377432 0.000000
v -0.438406 -0.438406 0.000000
v -0.377432 -0.491879 0.000000
v -0.310000 -0.536936 0.000000
v -0.237264 -0.572805 0.000000
v -0.160468 -0.598874 0.000000
v -0.080926 -0.614696 0.000000
v -0.000000 -0.620000 0.000000
v 0.080926 -0.614696 0.000000
v 0.160468 -0.598874 0.000000
v 0.237264 -0.572805 0.000000
v 0.310000 -0.536936 0.000000
v 0.377432 -0.491879 0.000000
v 0.438406 -0.438406 0.000000
v 0.491879 -0.377432 0.000000
v 0.536936 -0.310000 0.000000
v 0.572805 -0.237264 0.000000
v 0.598874 -0.160468 0.000000
v 0.614696 -0.080926 0.000000
v 0.613874 0.000000 0.061538
v 0.608622 0.080127 0.061538
v 0.592957 0.158882 0.061538
v 0.567146 0.234919 0.061538
v 0.531631 0.306937 0.061538
v 0.487019 0.373703 0.061538
v 0.434075 0.434075 0.061538
v 0.373703 0.487019 0.061538
v 0.306937 0.531631 0.061538
v 0.234919 0.567146 0.061538
v 0.158882 0.592957 0.061538
v 0.080127 0.608622 0.061538
v 0.000000 0.613874 0.061538
v -0.080127 0.608622 0.061538
v -0.158882 0.592957 0.061538
v -0.234919 0.567146 0.061538
v -0.306937 0.531631 0.061538
v -0.373703 0.487019 0.061538
v -0.434075 0.434075 0.061538
v -0.487019 0.373703 0.061538
v -0.531631 0.306937 0.061538
v -0.567146 0.234919 0.061538
v -0.592957 0.158882 0.061538
v -0.608622 0.080127 0.061538
v -0.613874 0.000000 0.061538
v -0.608622 -0.080127 0.061538
v -0.592957 -0.158882 0.061538
v -0.567146 -0.234919 0.061538
v -0.531631 -0.306937 0.061538
v -0.487019 -0.373703 0.061538
v -0.434075 -0.434075 0.061538
v -0.373703 -0.487019 0.061538
v -0.306937 -0.531631 0.061538
v -0.234919 -0.567146 0.061538
v -0.158882 -0.592957 0.061538
v -0.080127 -0.608622 0.061538
v -0.000000 -0.613874 0.061538
v 0.080127 -0.608622 0.061538
v 0.158882 -0.592957 0.061538
v 0.234919 -0.567146 0.061538
v 0.306937 -0.531631 0.061538
v 0.373703 -0.487019 0.061538
v 0.434075 -0.434075 0.061538
v 0.487019 -0.373703 0.061538
v 0.531631 -0.306937 0.061538
v 0.567146 -0.234919 0.061538
v 0.592957 -0.158882 0.061538
v 0.608622 -0.080127 0.061538
v 0.596755 0.000000 0.123077
v 0.591649 0.077892 0.123077
v 0.576421 0.154451 0.123077
v 0.551329 0.228368 0.123077
v 0.516805 0.298377 0.123077
v 0.473437 0.363281 0.123077
v 0.421969 0.421969 0.123077
v 0.363281 0.473437 0.123077
v 0.298377 0.516805 0.123077
v 0.228368 0.551329 0.123077
v 0.154451 0.576421 0.123077
v 0.077892 0.591649 0.123077
v 0.000000 0.596755 0.123077
v -0.077892 0.591649 0.123077
v -0.154451 0.576421 0.123077
v -0.228368 0.551329 0.123077
v -0.298377 0.516805 0.123077
v -0.363281 0.473437 0.123077
v -0.421969 0.421969 0.123077
v -0.473437 0.363281 0.123077
v -0.516805 0.298377 0.123077
v -0.551329 0.228368 0.123077
v -0.576421 0.154451 0.123077
v -0.591649 0.077892 0.123077
v -0.596755 0.000000 0.123077
v -0.591649 -0.077892 0.123077
v -0.576421 -0.154451 0.123077
v -0.551329 -0.228368 0.123077
v -0.516805 -0.298377 0.123077
v -0.473437 -0.363281 0.123077
v -0.421969 -0.421969 0.123077
v -0.363281 -0.473437 0.123077
v -0.298377 -0.516805 0.123077
v -0.228368 -0.551329 0.123077
v -0.154451 -0.576421 0.123077
v -0.077892 -0.591649 0.123077
v -0.000000 -0.596755 0.123077
v 0.077892 -0.591649 0.123077
v 0.154451 -0.576421 0.123077
v 0.228368 -0.551329 0.123077
v 0.298377 -0.516805 0.123077
v 0.363281 -0.473437 0.123077
v 0.421969 -0.421969 0.123077
v 0.473437 -0.363281 0.123077
v 0.516805 -0.298377 0.123077
v 0.551329 -0.228368 0.123077
v 0.576421 -0.154451 0.123077
v 0.591649 -0.077892 0.123077
v 0.570529 0.000000 0.184615
v 0.565648 0.074469 0.184615
v 0.551089 0.147664 0.184615
v 0.527100 0.218332 0.184615
v 0.494092 0.285264 0.184615
v 0.452631 0.347316 0.184615
v 0.403425 0.403425 0.184615
v 0.347316 0.452631 0.184615
v 0.285264 0.494092 0.184615
v 0.218332 0.527100 0.184615
v 0.147664 0.551089 0.184615
v 0.074469 0.565648 0.184615
v 0.000000 0.570529 0.184615
v -0.074469 0.565648 0.184615
v -0.147664 0.551089 0.184615
v -0.218332 0.527100 0.184615
v -0.285264 0.494092 0.184615
v -0.347316 0.452631 0.184615
v -0.403425 0.403425 0.184615
v -0.452631 0.347316 0.184615
v -0.494092 0.285264 0.184615
v -0.527100 0.218332 0.184615
v -0.551089 0.147664 0.184615
v -0.565648 0.074469 0.184615
v -0.570529 0.000000 0.184615
v -0.565648 -0.074469 0.184615
v -0.551089 -0.147664 0.184615
v -0.527100 -0.218332 0.184615
v -0.494092 -0.285264 0.184615
v -0.452631 -0.347316 0.184615
v -0.403425 -0.403425 0.184615
v -0.347316 -0.452631 0.184615
v -0.285264 -0.494092 0.184615
v -0.218332 -0.527100 0.184615
v -0.147664 -0.551089 0.184615
v -0.074469 -0.565648 0.184615
v -0.000000 -0.570529 0.184615
v 0.074469 -0.565648 0.184615
v 0.147664 -0.551089 0.184615
v 0.218332 -0.527100 0.184615
v 0.285264 -0.494092 0.184615
v 0.347316 -0.452631 0.184615
v 0.403425 -0.403425 0.184615
v 0.452631 -0.347316 0.184615
v 0.494092 -0.285264 0.184615
v 0.527100 -0.218332 0.184615
v 0.551089 -0.147664 0.184615
v 0.565648 -0.074469 0.184615
v 0.537084 0.000000 0.246154
v 0.532489 0.070104 0.246154
v 0.518783 0.139008 0.246154
v 0.496201 0.205533 0.246154
v 0.465129 0.268542 0.246154
v 0.426098 0.326956 0.246154
v 0.379776 0.379776 0.246154
v 0.326956 0.426098 0.246154
v 0.268542 0.465129 0.246154
v 0.205533 0.496201 0.246154
v 0.139008 0.518783 0.246154
v 0.070104 0.532489 0.246154
v 0.000000 0.537084 0.246154
v -0.070104 0.532489 0.246154
v -0.139008 0.518783 0.246154
v -0.205533 0.496201 0.246154
v -0.268542 0.465129 0.246154
v -0.326956 0.426098 0.246154
v -0.379776 0.379776 0.246154
v -0.426098 0.326956 0.246154
v -0.465129 0.268542 0.246154
v -0.496201 0.205533 0.246154
v -0.518783 0.139008 0.246154
v -0.532489 0.070104 0.246154
v -0.537084 0.000000 0.246154
v -0.532489 -0.070104 0.246154
v -0.518783 -0.139008 0.246154
v -0.496201 -0.205533 0.246154
v -0.465129 -0.268542 0.246154
v -0.426098 -0.326956 0.246154
v -0.379776 -0.379776 0.246154
v -0.326956 -0.426098 0.246154
v -0.268542 -0.465129 0.246154
v -0.205533 -0.496201 0.246154
v -0.139008 -0.518783 0.246154
v -0.070104 -0.532489 0.246154
v -0.000000 -0.537084 0.246154
v 0.070104 -0.532489 0.246154
v 0.139008 -0.518783 0.246154
v 0.205533 -0.496201 0.246154
v 0.268542 -0.465129 0.246154
v 0.326956 -0.426098 0.246154
v 0.379776 -0.379776 0.246154
v 0.426098 -0.326956 0.246154
v 0.465129 -0.268542 0.246154
v 0.496201 -0.205533 0.246154
v 0.518783 -0.139008 0.246154
v 0.532489 -0.070104 0.246154
v 0.498308 0.000000 0.307692
v 0.494045 0.065042 0.307692
v 0.481328 0.128972 0.307692
v 0.460376 0.190694 0.307692
v 0.431547 0.249154 0.307692
v 0.395334 0.303351 0.307692
v 0.352357 0.352357 0.307692
v 0.303351 0.395334 0.307692
v 0.249154 0.431547 0.307692
v 0.190694 0.460376 0.307692
v 0.128972 0.481328 0.307692
v 0.065042 0.494045 0.307692
v 0.000000 0.498308 0.307692
v -0.065042 0.494045 0.307692
v -0.128972 0.481328 0.307692
v -0.190694 0.460376 0.307692
v -0.249154 0.431547 0.307692
v -0.303351 0.395334 0.307692
v -0.352357 0.352357 0.307692
v -0.395334 0.303351 0.307692
v -0.431547 0.249154 0.307692
v -0.460376 0.190694 0.307692
v -0.481328 0.128972 0.307692
v -0.494045 0.065042 0.307692
v -0.498308 0.000000 0.307692
v -0.494045 -0.065042 0.307692
v -0.481328 -0.128972 0.307692
v -0.460376 -0.190694 0.307692
v -0.431547 -0.249154 0.307692
v -0.395334 -0.303351 0.307692
v -0.352357 -0.352357 0.307692
v -0.303351 -0.395334 0.307692
v -0.249154 -0.431547 0.307692
v -0.190694 -0.460376 0.307692
v -0.128972 -0.481328 0.307692
v -0.065042 -0.494045 0.307692
v -0.000000 -0.498308 0.307692
v 0.065042 -0.494045 0.307692
v 0.128972 -0.481328 0.307692
v 0.190694 -0.460376 0.307692
v 0.249154 -0.431547 0.307692
v 0.303351 -0.395334 0.307692
v 0.352357 -0.352357 0.307692
v 0.395334 -0.303351 0.307692
v 0.431547 -0.249154 0.307692
v 0.460376 -0.190694 0.307692
v 0.481328 -0.128972 0.307692
v 0.494045 -0.065042 0.307692
v 0.456087 0.000000 0.369231
v 0.452185 0.059531 0.369231
v 0.440546 0.118044 0.369231
v 0.421370 0.174537 0.369231
v 0.394983 0.228044 0.369231
v 0.361838 0.277648 0.369231
v 0.322502 0.322502 0.369231
v 0.277648 0.361838 0.369231
v 0.228044 0.394983 0.369231
v 0.174537 0.421370 0.369231
v 0.118044 0.440546 0.369231
v 0.059531 0.452185 0.369231
v 0.000000 0.456087 0.369231
v -0.059531 0.452185 0.369231
v -0.118044 0.440546 0.369231
v -0.174537 0.421370 0.369231
v -0.228044 0.394983 0.369231
v -0.277648 0.361838 0.369231
v -0.322502 0.322502 0.369231
v -0.361838 0.277648 0.369231
v -0.394983 0.228044 0.369231
v -0.421370 0.174537 0.369231
v -0.440546 0.118044 0.369231
v -0.452185 0.059531 0.369231
v -0.456087 0.000000 0.369231
v -0.452185 -0.059531 0.369231
v -0.440546 -0.118044 0.369231
v -0.421370 -0.174537 0.369231
v -0.394983 -0.228044 0.369231
v -0.361838 -0.277648 0.369231
v -0.322502 -0.322502 0.369231
v -0.277648 -0.361838 0.369231
v -0.228044 -0.394983 0.369231
v -0.174537 -0.421370 0.369231
v -0.118044 -0.440546 0.369231
v -0.059531 -0.452185 0.369231
v -0.000000 -0.456087 0.369231
v 0.059531 -0.452185 0.369231
v 0.118044 -0.440546 0.369231
v 0.174537 -0.421370 0.369231
v 0.228044 -0.394983 0.369231
v 0.277648 -0.361838 0.369231
v 0.322502 -0.322502 0.369231
v 0.361838 -0.277648 0.369231
v 0.394983 -0.228044 0.369231
v 0.421370 -0.174537 0.369231
v 0.440546 -0.118044 0.369231
v 0.452185 -0.059531 0.369231
v 0.412309 0.000000 0.430769
v 0.408782 0.053817 0.430769
v 0.398260 0.106714 0.430769
v 0.380924 0.157784 0.430769
v 0.357070 0.206155 0.430769
v 0.327107 0.250998 0.430769
v 0.291547 0.291547 0.430769
v 0.250998 0.327107 0.430769
v 0.206155 0.357070 0.430769
v 0.157784 0.380924 0.430769
v 0.106714 0.398260 0.430769
v 0.053817 0.408782 0.430769
v 0.000000 0.412309 0.430769
v -0.053817 0.408782 0.430769
v -0.106714 0.398260 0.430769
v -0.157784 0.380924 0.430769
v -0.206155 0.357070 0.430769
v -0.250998 0.327107 0.430769
v -0.291547 0.291547 0.430769
v -0.327107 0.250998 0.430769
v -0.357070 0.206155 0.430769
v -0.380924 0.157784 0.430769
v -0.398260 0.106714 0.430769
v -0.408782 0.053817 0.430769
v -0.412309 0.000000 0.430769
v -0.408782 -0.053817 0.430769
v -0.398260 -0.106714 0.430769
v -0.380924 -0.157784 0.430769
v -0.357070 -0.206155 0.430769
v -0.327107 -0.250998 0.430769
v -0.291547 -0.291547 0.430769
v -0.250998 -0.327107 0.430769
v -0.206155 -0.357070 0.430769
v -0.157784 -0.380924 0.430769
v -0.106714 -0.398260 0.430769
v -0.053817 -0.408782 0.430769
v -0.000000 -0.412309 0.430769
v 0.053817 -0.408782 0.430769
v 0.106714 -0.398260 0.430769
v 0.157784 -0.380924 0.430769
v 0.206155 -0.357070 0.430769
v 0.250998 -0.327107 0.430769
v 0.291547 -0.291547 0.430769
v 0.327107 -0.250998 0.430769
v 0.357070 -0.206155 0.430769
v 0.380924 -0.157784 0.430769
v 0.398260 -0.106714 0.430769
v 0.408782 -0.053817 0.430769
v 0.368862 0.000000 0.492308
v 0.365706 0.048146 0.492308
v 0.356293 0.095468 0.492308
v 0.340784 0.141157 0.492308
v 0.319444 0.184431 0.492308
v 0.292638 0.224549 0.492308
v 0.260825 0.260825 0.492308
v 0.224549 0.292638 0.492308
v 0.184431 0.319444 0.492308
v 0.141157 0.340784 0.492308
v 0.095468 0.356293 0.492308
v 0.048146 0.365706 0.492308
v 0.000000 0.368862 0.492308
v -0.048146 0.365706 0.492308
v -0.095468 0.356293 0.492308
v -0.141157 0.340784 0.492308
v -0.184431 0.319444 0.492308
v -0.224549 0.292638 0.492308
v -0.260825 0.260825 0.492308
v -0.292638 0.224549 0.492308
v -0.319444 0.184431 0.492308
v -0.340784 0.141157 0.492308
v -0.356293 0.095468 0.492308
v -0.365706 0.048146 0.492308
v -0.368862 0.000000 0.492308
v -0.365706 -0.048146 0.492308
v -0.356293 -0.095468 0.492308
v -0.340784 -0.141157 0.492308
v -0.319444 -0.184431 0.492308
v -0.292638 -0.224549 0.492308
v -0.260825 -0.260825 0.492308
v -0.224549 -0.292638 0.492308
v -0.184431 -0.319444 0.492308
v -0.141157 -0.340784 0.492308
v -0.095468 -0.356293 0.492308
v -0.048146 -0.365706 0.492308
v -0.000000 -0.368862 0.492308
v 0.048146 -0.365706 0.492308
v 0.095468 -0.356293 0.492308
v 0.141157 -0.340784 0.492308
v 0.184431 -0.319444 0.492308
v 0.224549 -0.292638 0.492308
v 0.260825 -0.260825 0.492308
v 0.292638 -0.224549 0.492308
v 0.319444 -0.184431 0.492308
v 0.340784 -0.141157 0.492308
v 0.356293 -0.095468 0.492308
v 0.365706 -0.048146 0.492308
v 0.327632 0.000000 0.553846
v 0.324829 0.042765 0.553846
v 0.316468 0.084797 0.553846
v 0.302693 0.125379 0.553846
v 0.283738 0.163816 0.553846
v 0.259928 0.199450 0.553846
v 0.231671 0.231671 0.553846
v 0.199450 0.259928 0.553846
v 0.163816 0.283738 0.553846
v 0.125379 0.302693 0.553846
v 0.084797 0.316468 0.553846
v 0.042765 0.324829 0.553846
v 0.000000 0.327632 0.553846
v -0.042765 0.324829 0.553846
v -0.084797 0.316468 0.553846
v -0.125379 0.302693 0.553846
v -0.163816 0.283738 0.553846
v -0.199450 0.259928 0.553846
v -0.231671 0.231671 0.553846
v -0.259928 0.199450 0.553846
v -0.283738 0.163816 0.553846
v -0.302693 0.125379 0.553846
v -0.316468 0.084797 0.553846
v -0.324829 0.042765 0.553846
v -0.327632 0.000000 0.553846
v -0.324829 -0.042765 0.553846
v -0.316468 -0.084797 0.553846
v -0.302693 -0.125379 0.553846
v -0.283738 -0.163816 0.553846
v -0.259928 -0.199450 0.553846
v -0.231671 -0.231671 0.553846
v -0.199450 -0.259928 0.553846
v -0.163816 -0.283738 0.553846
v -0.125379 -0.302693 0.553846
v -0.084797 -0.316468 0.553846
v -0.042765 -0.324829 0.553846
v -0.000000 -0.327632 0.553846
v 0.042765 -0.324829 0.553846
v 0.084797 -0.316468 0.553846
v 0.125379 -0.302693 0.553846
v 0.163816 -0.283738 0.553846
v 0.199450 -0.259928 0.553846
v 0.231671 -0.231671 0.553846
v 0.259928 -0.199450 0.553846
v 0.283738 -0.163816 0.553846
v 0.302693 -0.125379 0.553846
v 0.316468 -0.084797 0.553846
v 0.324829 -0.042765 0.553846
v 0.290507 0.000000 0.615385
v 0.288022 0.037919 0.615385
v 0.280608 0.075189 0.615385
v 0.268394 0.111172 0.615385
v 0.251587 0.145254 0.615385
v 0.230475 0.176850 0.615385
v 0.205420 0.205420 0.615385
v 0.176850 0.230475 0.615385
v 0.145254 0.251587 0.615385
v 0.111172 0.268394 0.615385
v 0.075189 0.280608 0.615385
v 0.037919 0.288022 0.615385
v 0.000000 0.290507 0.615385
v -0.037919 0.288022 0.615385
v -0.075189 0.280608 0.615385
v -0.111172 0.268394 0.615385
v -0.145254 0.251587 0.615385
v -0.176850 0.230475 0.615385
v -0.205420 0.205420 0.615385
v -0.230475 0.176850 0.615385
v -0.251587 0.145254 0.615385
v -0.268394 0.111172 0.615385
v -0.280608 0.075189 0.615385
v -0.288022 0.037919 0.615385
v -0.290507 0.000000 0.615385
v -0.288022 -0.037919 0.615385
v -0.280608 -0.075189 0.615385
v -0.268394 -0.111172 0.615385
v -0.251587 -0.145254 0.615385
v -0.230475 -0.176850 0.615385
v -0.205420 -0.205420 0.615385
v -0.176850 -0.230475 0.615385
v -0.145254 -0.251587 0.615385
v -0.111172 -0.268394 0.615385
v -0.075189 -0.280608 0.615385
v -0.037919 -0.288022 0.615385
v -0.000000 -0.290507 0.615385
v 0.037919 -0.288022 0.615385
v 0.075189 -0.280608 0.615385
v 0.111172 -0.268394 0.615385
v 0.145254 -0.251587 0.615385
v 0.176850 -0.230475 0.615385
v 0.205420 -0.205420 0.615385
v 0.230475 -0.176850 0.615385
v 0.251587 -0.145254 0.615385
v 0.268394 -0.111172 0.615385
v 0.280608 -0.075189 0.615385
v 0.288022 -0.037919 0.615385
v 0.259374 0.000000 0.676923
v 0.257155 0.033855 0.676923
v 0.250536 0.067131 0.676923
v 0.239631 0.099258 0.676923
v 0.224625 0.129687 0.676923
v 0.205775 0.157897 0.676923
v 0.183405 0.183405 0.676923
v 0.157897 0.205775 0.676923
v 0.129687 0.224625 0.676923
v 0.099258 0.239631 0.676923
v 0.067131 0.250536 0.676923
v 0.033855 0.257155 0.676923
v 0.000000 0.259374 0.676923
v -0.033855 0.257155 0.676923
v -0.067131 0.250536 0.676923
v -0.099258 0.239631 0.676923
v -0.129687 0.224625 0.676923
v -0.157897 0.205775 0.676923
v -0.183405 0.183405 0.676923
v -0.205775 0.157897 0.676923
v -0.224625 0.129687 0.676923
v -0.239631 0.099258 0.676923
v -0.250536 0.067131 0.676923
v -0.257155 0.033855 0.676923
v -0.259374 0.000000 0.676923
v -0.257155 -0.033855 0.676923
v -0.250536 -0.067131 0.676923
v -0.239631 -0.099258 0.676923
v -0.224625 -0.129687 0.676923
v -0.205775 -0.157897 0.676923
v -0.183405 -0.183405 0.676923
v -0.157897 -0.205775 0.676923
v -0.129687 -0.224625 0.676923
v -0.099258 -0.239631 0.676923
v -0.067131 -0.250536 0.676923
v -0.033855 -0.257155 0.676923
v -0.000000 -0.259374 0.676923
v 0.033855 -0.257155 0.676923
v 0.067131 -0.250536 0.676923
v 0.099258 -0.239631 0.676923
v 0.129687 -0.224625 0.676923
v 0.157897 -0.205775 0.676923
v 0.183405 -0.183405 0.676923
v 0.205775 -0.157897 0.676923
v 0.224625 -0.129687 0.676923
v 0.239631 -0.099258 0.676923
v 0.250536 -0.067131 0.676923
v 0.257155 -0.033855 0.676923
v 0.236121 0.000000 0.738462
v 0.234101 0.030820 0.738462
v 0.228075 0.061113 0.738462
v 0.218147 0.090360 0.738462
v 0.204487 0.118061 0.738462
v 0.187327 0.143741 0.738462
v 0.166963 0.166963 0.738462
v 0.143741 0.187327 0.738462
v 0.118061 0.204487 0.738462
v 0.090360 0.218147 0.738462
v 0.061113 0.228075 0.738462
v 0.030820 0.234101 0.738462
v 0.000000 0.236121 0.738462
v -0.030820 0.234101 0.738462
v -0.061113 0.228075 0.738462
v -0.090360 0.218147 0.738462
v -0.118061 0.204487 0.738462
v -0.143741 0.187327 0.738462
v -0.166963 0.166963 0.738462
v -0.187327 0.143741 0.738462
v -0.204487 0.118061 0.738462
v -0.218147 0.090360 0.738462
v -0.228075 0.061113 0.738462
v -0.234101 0.030820 0.738462
v -0.236121 0.000000 0.738462
v -0.234101 -0.030820 0.738462
v -0.228075 -0.061113 0.738462
v -0.218147 -0.090360 0.738462
v -0.204487 -0.118061 0.738462
v -0.187327 -0.143741 0.738462
v -0.166963 -0.166963 0.738462
v -0.143741 -0.187327 0.738462
v -0.118061 -0.204487 0.738462
v -0.090360 -0.218147 0.738462
v -0.061113 -0.228075 0.738462
v -0.030820 -0.234101 0.738462
v -0.000000 -0.236121 0.738462
v 0.030820 -0.234101 0.738462
v 0.061113 -0.228075 0.738462
v 0.090360 -0.218147 0.738462
v 0.118061 -0.204487 0.738462
v 0.143741 -0.187327 0.738462
v 0.166963 -0.166963 0.738462
v 0.187327 -0.143741 0.738462
v 0.204487 -0.118061 0.738462
v 0.218147 -0.090360 0.738462
v 0.228075 -0.061113 0.738462
v 0.234101 -0.030820 0.738462
v 0.222635 0.000000 0.800000
v 0.220730 0.029060 0.800000
v 0.215049 0.057622 0.800000
v 0.205688 0.085199 0.800000
v 0.192807 0.111317 0.800000
v 0.176628 0.135531 0.800000
v 0.157427 0.157427 0.800000
v 0.135531 0.176628 0.800000
v 0.111317 0.192807 0.800000
v 0.085199 0.205688 0.800000
v 0.057622 0.215049 0.800000
v 0.029060 0.220730 0.800000
v 0.000000 0.222635 0.800000
v -0.029060 0.220730 0.800000
v -0.057622 0.215049 0.800000
v -0.085199 0.205688 0.800000
v -0.111317 0.192807 0.800000
v -0.135531 0.176628 0.800000
v -0.157427 0.157427 0.800000
v -0.176628 0.135531 0.800000
v -0.192807 0.111317 0.800000
v -0.205688 0.085199 0.800000
v -0.215049 0.057622 0.800000
v -0.220730 0.029060 0.800000
v -0.222635 0.000000 0.800000
v -0.220730 -0.029060 0.800000
v -0.215049 -0.057622 0.800000
v -0.205688 -0.085199 0.800000
v -0.192807 -0.111317 0.800000
v -0.176628 -0.135531 0.800000
v -0.157427 -0.157427 0.800000
v -0.135531 -0.176628 0.800000
v -0.111317 -0.192807 0.800000
v -0.085199 -0.205688 0.800000
v -0.057622 -0.215049 0.800000
v -0.029060 -0.220730 0.800000
v -0.000000 -0.222635 0.800000
v 0.029060 -0.220730 0.800000
v 0.057622 -0.215049 0.800000
v 0.085199 -0.205688 0.800000
v 0.111317 -0.192807 0.800000
v 0.135531 -0.176628 0.800000
v 0.157427 -0.157427 0.800000
v 0.176628 -0.135531 0.800000
v 0.192807 -0.111317 0.800000
v 0.205688 -0.085199 0.800000
v 0.215049 -0.057622 0.800000
v 0.220730 -0.029060 0.800000
v 0.242567 0.000000 0.861538
v 0.240492 0.031661 0.861538
v 0.234302 0.062781 0.861538
v 0.224103 0.092826 0.861538
v 0.210069 0.121283 0.861538
v 0.192441 0.147665 0.861538
v 0.171521 0.171521 0.861538
v 0.147665 0.192441 0.861538
v 0.121283 0.210069 0.861538
v 0.092826 0.224103 0.861538
v 0.062781 0.234302 0.861538
v 0.031661 0.240492 0.861538
v 0.000000 0.242567 0.861538
v -0.031661 0.240492 0.861538
v -0.062781 0.234302 0.861538
v -0.092826 0.224103 0.861538
v -0.121283 0.210069 0.861538
v -0.147665 0.192441 0.861538
v -0.171521 0.171521 0.861538
v -0.192441 0.147665 0.861538
v -0.210069 0.121283 0.861538
v -0.224103 0.092826 0.861538
v -0.234302 0.062781 0.861538
v -0.240492 0.031661 0.861538
v -0.242567 0.000000 0.861538
v -0.240492 -0.031661 0.861538
v -0.234302 -0.062781 0.861538
v -0.224103 -0.092826 0.861538
v -0.210069 -0.121283 0.861538
v -0.192441 -0.147665 0.861538
v -0.171521 -0.171521 0.861538
v -0.147665 -0.192441 0.861538
v -0.121283 -0.210069 0.861538
v -0.092826 -0.224103 0.861538
v -0.062781 -0.234302 0.861538
v -0.031661 -0.240492 0.861538
v -0.000000 -0.242567 0.861538
v 0.031661 -0.240492 0.861538
v 0.062781 -0.234302 0.861538
v 0.092826 -0.224103 0.861538
v 0.121283 -0.210069 0.861538
v 0.147665 -0.192441 0.861538
v 0.171521 -0.171521 0.861538
v 0.192441 -0.147665 0.861538
v 0.210069 -0.121283 0.861538
v 0.224103 -0.092826 0.861538
v 0.234302 -0.062781 0.861538
v 0.240492 -0.031661 0.861538
v 0.302754 0.000000 0.923077
v 0.300164 0.039517 0.923077
v 0.292438 0.078359 0.923077
v 0.279708 0.115859 0.923077
v 0.262193 0.151377 0.923077
v 0.240191 0.184305 0.923077
v 0.214079 0.214079 0.923077
v 0.184305 0.240191 0.923077
v 0.151377 0.262193 0.923077
v 0.115859 0.279708 0.923077
v 0.078359 0.292438 0.923077
v 0.039517 0.300164 0.923077
v 0.000000 0.302754 0.923077
v -0.039517 0.300164 0.923077
v -0.078359 0.292438 0.923077
v -0.115859 0.279708 0.923077
v -0.151377 0.262193 0.923077
v -0.184305 0.240191 0.923077
v -0.214079 0.214079 0.923077
v -0.240191 0.184305 0.923077
v -0.262193 0.151377 0.923077
v -0.279708 0.115859 0.923077
v -0.292438 0.078359 0.923077
v -0.300164 0.039517 0.923077
v -0.302754 0.000000 0.923077
v -0.300164 -0.039517 0.923077
v -0.292438 -0.078359 0.923077
v -0.279708 -0.115859 0.923077
v -0.262193 -0.151377 0.923077
v -0.240191 -0.184305 0.923077
v -0.214079 -0.214079 0.923077
v -0.184305 -0.240191 0.923077
v -0.151377 -0.262193 0.923077
v -0.115859 -0.279708 0.923077
v -0.078359 -0.292438 0.923077
v -0.039517 -0.300164 0.923077
v -0.000000 -0.302754 0.923077
v 0.039517 -0.300164 0.923077
v 0.078359 -0.292438 0.923077
v 0.115859 -0.279708 0.923077
v 0.151377 -0.262193 0.923077
v 0.184305 -0.240191 0.923077
v 0.214079 -0.214079 0.923077
v 0.240191 -0.184305 0.923077
v 0.262193 -0.151377 0.923077
v 0.279708 -0.115859 0.923077
v 0.292438 -0.078359 0.923077
v 0.300164 -0.039517 0.923077
v 0.357074 0.000000 0.984615
v 0.354019 0.046608 0.984615
v 0.344907 0.092418 0.984615
v 0.329894 0.136646 0.984615
v 0.309235 0.178537 0.984615
v 0.283286 0.217373 0.984615
v 0.252490 0.252490 0.984615
v 0.217373 0.283286 0.984615
v 0.178537 0.309235 0.984615
v 0.136646 0.329894 0.984615
v 0.092418 0.344907 0.984615
v 0.046608 0.354019 0.984615
v 0.000000 0.357074 0.984615
v -0.046608 0.354019 0.984615
v -0.092418 0.344907 0.984615
v -0.136646 0.329894 0.984615
v -0.178537 0.309235 0.984615
v -0.217373 0.283286 0.984615
v -0.252490 0.252490 0.984615
v -0.283286 0.217373 0.984615
v -0.309235 0.178537 0.984615
v -0.329894 0.136646 0.984615
v -0.344907 0.092418 0.984615
v -0.354019 0.046608 0.984615
v -0.357074 0.000000 0.984615
v -0.354019 -0.046608 0.984615
v -0.344907 -0.092418 0.984615
v -0.329894 -0.136646 0.984615
v -0.309235 -0.178537 0.984615
v -0.283286 -0.217373 0.984615
v -0.252490 -0.252490 0.984615
v -0.217373 -0.283286 0.984615
v -0.178537 -0.309235 0.984615
v -0.136646 -0.329894 0.984615
v -0.092418 -0.344907 0.984615
v -0.046608 -0.354019 0.984615
v -0.000000 -0.357074 0.984615
v 0.046608 -0.354019 0.984615
v 0.092418 -0.344907 0.984615
v 0.136646 -0.329894 0.984615
v 0.178537 -0.309235 0.984615
v 0.217373 -0.283286 0.984615
v 0.252490 -0.252490 0.984615
v 0.283286 -0.217373 0.984615
v 0.309235 -0.178537 0.984615
v 0.329894 -0.136646 0.984615
v 0.344907 -0.092418 0.984615
v 0.354019 -0.046608 0.984615
v 0.406099 0.000000 1.046154
v 0.402625 0.053007 1.046154
v 0.392262 0.105106 1.046154
v 0.375187 0.155407 1.046154
v 0.351692 0.203050 1.046154
v 0.322180 0.247218 1.046154
v 0.287156 0.287156 1.046154
v 0.247218 0.322180 1.046154
v 0.203050 0.351692 1.046154
v 0.155407 0.375187 1.046154
v 0.105106 0.392262 1.046154
v 0.053007 0.402625 1.046154
v 0.000000 0.406099 1.046154
v -0.053007 0.402625 1.046154
v -0.105106 0.392262 1.046154
v -0.155407 0.375187 1.046154
v -0.203050 0.351692 1.046154
v -0.247218 0.322180 1.046154
v -0.287156 0.287156 1.046154
v -0.322180 0.247218 1.046154
v -0.351692 0.203050 1.046154
v -0.375187 0.155407 1.046154
v -0.392262 0.105106 1.046154
v -0.402625 0.053007 1.046154
v -0.406099 0.000000 1.046154
v -0.402625 -0.053007 1.046154
v -0.392262 -0.105106 1.046154
v -0.375187 -0.155407 1.046154
v -0.351692 -0.203050 1.046154
v -0.322180 -0.247218 1.046154
v -0.287156 -0.287156 1.046154
v -0.247218 -0.322180 1.046154
v -0.203050 -0.351692 1.046154
v -0.155407 -0.375187 1.046154
v -0.105106 -0.392262 1.046154
v -0.053007 -0.402625 1.046154
v -0.000000 -0.406099 1.046154
v 0.053007 -0.402625 1.046154
v 0.105106 -0.392262 1.046154
v 0.155407 -0.375187 1.046154
v 0.203050 -0.351692 1.046154
v 0.247218 -0.322180 1.046154
v 0.287156 -0.287156 1.046154
v 0.322180 -0.247218 1.046154
v 0.351692 -0.203050 1.046154
v 0.375187 -0.155407 1.046154
v 0.392262 -0.105106 1.046154
v 0.402625 -0.053007 1.046154
v 0.450345 0.000000 1.107692
v 0.446493 0.058782 1.107692
v 0.435000 0.116558 1.107692
v 0.416065 0.172340 1.107692
v 0.390011 0.225173 1.107692
v 0.357283 0.274153 1.107692
v 0.318442 0.318442 1.107692
v 0.274153 0.357283 1.107692
v 0.225173 0.390011 1.107692
v 0.172340 0.416065 1.107692
v 0.116558 0.435000 1.107692
v 0.058782 0.446493 1.107692
v 0.000000 0.450345 1.107692
v -0.058782 0.446493 1.107692
v -0.116558 0.435000 1.107692
v -0.172340 0.416065 1.107692
v -0.225173 0.390011 1.107692
v -0.274153 0.357283 1.107692
v -0.318442 0.318442 1.107692
v -0.357283 0.274153 1.107692
v -0.390011 0.225173 1.107692
v -0.416065 0.172340 1.107692
v -0.435000 0.116558 1.107692
v -0.446493 0.058782 1.107692
v -0.450345 0.000000 1.107692
v -0.446493 -0.058782 1.107692
v -0.435000 -0.116558 1.107692
v -0.416065 -0.172340 1.107692
v -0.390011 -0.225173 1.107692
v -0.357283 -0.274153 1.107692
v -0.318442 -0.318442 1.107692
v -0.274153 -0.357283 1.107692
v -0.225173 -0.390011 1.107692
v -0.172340 -0.416065 1.107692
v -0.116558 -0.435000 1.107692
v -0.058782 -0.446493 1.107692
v -0.000000 -0.450345 1.107692
v 0.058782 -0.446493 1.107692
v 0.116558 -0.435000 1.107692
v 0.172340 -0.416065 1.107692
v 0.225173 -0.390011 1.107692
v 0.274153 -0.357283 1.107692
v 0.318442 -0.318442 1.107692
v 0.357283 -0.274153 1.107692
v 0.390011 -0.225173 1.107692
v 0.416065 -0.172340 1.107692
v 0.435000 -0.116558 1.107692
v 0.446493 -0.058782 1.107692
v 0.490278 0.000000 1.169231
v 0.486084 0.063994 1.169231
v 0.473573 0.126893 1.169231
v 0.452958 0.187621 1.169231
v 0.424594 0.245139 1.169231
v 0.388964 0.298463 1.169231
v 0.346679 0.346679 1.169231
v 0.298463 0.388964 1.169231
v 0.245139 0.424594 1.169231
v 0.187621 0.452958 1.169231
v 0.126893 0.473573 1.169231
v 0.063994 0.486084 1.169231
v 0.000000 0.490278 1.169231
v -0.063994 0.486084 1.169231
v -0.126893 0.473573 1.169231
v -0.187621 0.452958 1.169231
v -0.245139 0.424594 1.169231
v -0.298463 0.388964 1.169231
v -0.346679 0.346679 1.169231
v -0.388964 0.298463 1.169231
v -0.424594 0.245139 1.169231
v -0.452958 0.187621 1.169231
v -0.473573 0.126893 1.169231
v -0.486084 0.063994 1.169231
v -0.490278 0.000000 1.169231
v -0.486084 -0.063994 1.169231
v -0.473573 -0.126893 1.169231
v -0.452958 -0.187621 1.169231
v -0.424594 -0.245139 1.169231
v -0.388964 -0.298463 1.169231
v -0.346679 -0.346679 1.169231
v -0.298463 -0.388964 1.169231
v -0.245139 -0.424594 1.169231
v -0.187621 -0.452958 1.169231
v -0.126893 -0.473573 1.169231
v -0.063994 -0.486084 1.169231
v -0.000000 -0.490278 1.169231
v 0.063994 -0.486084 1.169231
v 0.126893 -0.473573 1.169231
v 0.187621 -0.452958 1.169231
v 0.245139 -0.424594 1.169231
v 0.298463 -0.388964 1.169231
v 0.346679 -0.346679 1.169231
v 0.388964 -0.298463 1.169231
v 0.424594 -0.245139 1.169231
v 0.452958 -0.187621 1.169231
v 0.473573 -0.126893 1.169231
v 0.486084 -0.063994 1.169231
v 0.526319 0.000000 1.230769
v 0.521816 0.068698 1.230769
v 0.508385 0.136221 1.230769
v 0.486255 0.201413 1.230769
v 0.455805 0.263159 1.230769
v 0.417557 0.320403 1.230769
v 0.372164 0.372164 1.230769
v 0.320403 0.417557 1.230769
v 0.263159 0.455805 1.230769
v 0.201413 0.486255 1.230769
v 0.136221 0.508385 1.230769
v 0.068698 0.521816 1.230769
v 0.000000 0.526319 1.230769
v -0.068698 0.521816 1.230769
v -0.136221 0.508385 1.230769
v -0.201413 0.486255 1.230769
v -0.263159 0.455805 1.230769
v -0.320403 0.417557 1.230769
v -0.372164 0.372164 1.230769
v -0.417557 0.320403 1.230769
v -0.455805 0.263159 1.230769
v -0.486255 0.201413 1.230769
v -0.508385 0.136221 1.230769
v -0.521816 0.068698 1.230769
v -0.526319 0.000000 1.230769
v -0.521816 -0.068698 1.230769
v -0.508385 -0.136221 1.230769
v -0.486255 -0.201413 1.230769
v -0.455805 -0.263159 1.230769
v -0.417557 -0.320403 1.230769
v -0.372164 -0.372164 1.230769
v -0.320403 -0.417557 1.230769
v -0.263159 -0.455805 1.230769
v -0.201413 -0.486255 1.230769
v -0.136221 -0.508385 1.230769
v -0.068698 -0.521816 1.230769
v -0.000000 -0.526319 1.230769
v 0.068698 -0.521816 1.230769
v 0.136221 -0.508385 1.230769
v 0.201413 -0.486255 1.230769
v 0.263159 -0.455805 1.230769
v 0.320403 -0.417557 1.230769
v 0.372164 -0.372164 1.230769
v 0.417557 -0.320403 1.230769
v 0.455805 -0.263159 1.230769
v 0.486255 -0.201413 1.230769
v 0.508385 -0.136221 1.230769
v 0.521816 -0.068698 1.230769
v 0.558846 0.000000 1.292308
v 0.554065 0.072944 1.292308
v 0.539804 0.144640 1.292308
v 0.516306 0.213861 1.292308
v 0.483975 0.279423 1.292308
v 0.443362 0.340204 1.292308
v 0.395164 0.395164 1.292308
v 0.340204 0.443362 1.292308
v 0.279423 0.483975 1.292308
v 0.213861 0.516306 1.292308
v 0.144640 0.539804 1.292308
v 0.072944 0.554065 1.292308
v 0.000000 0.558846 1.292308
v -0.072944 0.554065 1.292308
v -0.144640 0.539804 1.292308
v -0.213861 0.516306 1.292308
v -0.279423 0.483975 1.292308
v -0.340204 0.443362 1.292308
v -0.395164 0.395164 1.292308
v -0.443362 0.340204 1.292308
v -0.483975 0.279423 1.292308
v -0.516306 0.213861 1.292308
v -0.539804 0.144640 1.292308
v -0.554065 0.072944 1.292308
v -0.558846 0.000000 1.292308
v -0.554065 -0.072944 1.292308
v -0.539804 -0.144640 1.292308
v -0.516306 -0.213861 1.292308
v -0.483975 -0.279423 1.292308
v -0.443362 -0.340204 1.292308
v -0.395164 -0.395164 1.292308
v -0.340204 -0.443362 1.292308
v -0.279423 -0.483975 1.292308
v -0.213861 -0.516306 1.292308
v -0.144640 -0.539804 1.292308
v -0.072944 -0.554065 1.292308
v -0.000000 -0.558846 1.292308
v 0.072944 -0.554065 1.292308
v 0.144640 -0.539804 1.292308
v 0.213861 -0.516306 1.292308
v 0.279423 -0.483975 1.292308
v 0.340204 -0.443362 1.292308
v 0.395164 -0.395164 1.292308
v 0.443362 -0.340204 1.292308
v 0.483975 -0.279423 1.292308
v 0.516306 -0.213861 1.292308
v 0.539804 -0.144640 1.292308
v 0.554065 -0.072944 1.292308
v 0.588202 0.000000 1.353846
v 0.583170 0.076776 1.353846
v 0.568160 0.152238 1.353846
v 0.543428 0.225095 1.353846
v 0.509398 0.294101 1.353846
v 0.466652 0.358075 1.353846
v 0.415922 0.415922 1.353846
v 0.358075 0.466652 1.353846
v 0.294101 0.509398 1.353846
v 0.225095 0.543428 1.353846
v 0.152238 0.568160 1.353846
v 0.076776 0.583170 1.353846
v 0.000000 0.588202 1.353846
v -0.076776 0.583170 1.353846
v -0.152238 0.568160 1.353846
v -0.225095 0.543428 1.353846
v -0.294101 0.509398 1.353846
v -0.358075 0.466652 1.353846
v -0.415922 0.415922 1.353846
v -0.466652 0.358075 1.353846
v -0.509398 0.294101 1.353846
v -0.543428 0.225095 1.353846
v -0.568160 0.152238 1.353846
v -0.583170 0.076776 1.353846
v -0.588202 0.000000 1.353846
v -0.583170 -0.076776 1.353846
v -0.568160 -0.152238 1.353846
v -0.543428 -0.225095 1.353846
v -0.509398 -0.294101 1.353846
v -0.466652 -0.358075 1.353846
v -0.415922 -0.415922 1.353846
v -0.358075 -0.466652 1.353846
v -0.294101 -0.509398 1.353846
v -0.225095 -0.543428 1.353846
v -0.152238 -0.568160 1.353846
v -0.076776 -0.583170 1.353846
v -0.000000 -0.588202 1.353846
v 0.076776 -0.583170 1.353846
v 0.152238 -0.568160 1.353846
v 0.225095 -0.543428 1.353846
v 0.294101 -0.509398 1.353846
v 0.358075 -0.466652 1.353846
v 0.415922 -0.415922 1.353846
v 0.466652 -0.358075 1.353846
v 0.509398 -0.294101 1.353846
v 0.543428 -0.225095 1.353846
v 0.568160 -0.152238 1.353846
v 0.583170 -0.076776 1.353846
v 0.614697 0.000000 1.415385
v 0.609438 0.080234 1.415385
v 0.593752 0.159095 1.415385
v 0.567906 0.235234 1.415385
v 0.532343 0.307349 1.415385
v 0.487672 0.374204 1.415385
v 0.434656 0.434656 1.415385
v 0.374204 0.487672 1.415385
v 0.307349 0.532343 1.415385
v 0.235234 0.567906 1.415385
v 0.159095 0.593752 1.415385
v 0.080234 0.609438 1.415385
v 0.000000 0.614697 1.415385
v -0.080234 0.609438 1.415385
v -0.159095 0.593752 1.415385
v -0.235234 0.567906 1.415385
v -0.307349 0.532343 1.415385
v -0.374204 0.487672 1.415385
v -0.434656 0.434656 1.415385
v -0.487672 0.374204 1.415385
v -0.532343 0.307349 1.415385
v -0.567906 0.235234 1.415385
v -0.593752 0.159095 1.415385
v -0.609438 0.080234 1.415385
v -0.614697 0.000000 1.415385
v -0.609438 -0.080234 1.415385
v -0.593752 -0.159095 1.415385
v -0.567906 -0.235234 1.415385
v -0.532343 -0.307349 1.415385
v -0.487672 -0.374204 1.415385
v -0.434656 -0.434656 1.415385
v -0.374204 -0.487672 1.415385
v -0.307349 -0.532343 1.415385
v -0.235234 -0.567906 1.415385
v -0.159095 -0.593752 1.415385
v -0.080234 -0.609438 1.415385
v -0.000000 -0.614697 1.415385
v 0.080234 -0.609438 1.415385
v 0.159095 -0.593752 1.415385
v 0.235234 -0.567906 1.415385
v 0.307349 -0.532343 1.415385
v 0.374204 -0.487672 1.415385
v 0.434656 -0.434656 1.415385
v 0.487672 -0.374204 1.415385
v 0.532343 -0.307349 1.415385
v 0.567906 -0.235234 1.415385
v 0.593752 -0.159095 1.415385
v 0.609438 -0.080234 1.415385
v 0.638609 0.000000 1.476923
v 0.633146 0.083355 1.476923
v 0.616849 0.165284 1.476923
v 0.589998 0.244385 1.476923
v 0.553052 0.319305 1.476923
v 0.506643 0.388761 1.476923
v 0.451565 0.451565 1.476923
v 0.388761 0.506643 1.476923
v 0.319305 0.553052 1.476923
v 0.244385 0.589998 1.476923
v 0.165284 0.616849 1.476923
v 0.083355 0.633146 1.476923
v 0.000000 0.638609 1.476923
v -0.083355 0.633146 1.476923
v -0.165284 0.616849 1.476923
v -0.244385 0.589998 1.476923
v -0.319305 0.553052 1.476923
v -0.388761 0.506643 1.476923
v -0.451565 0.451565 1.476923
v -0.506643 0.388761 1.476923
v -0.553052 0.319305 1.476923
v -0.589998 0.244385 1.476923
v -0.616849 0.165284 1.476923
v -0.633146 0.083355 1.476923
v -0.638609 0.000000 1.476923
v -0.633146 -0.083355 1.476923
v -0.616849 -0.165284 1.476923
v -0.589998 -0.244385 1.476923
v -0.553052 -0.319305 1.476923
v -0.506643 -0.388761 1.476923
v -0.451565 -0.451565 1.476923
v -0.388761 -0.506643 1.476923
v -0.319305 -0.553052 1.476923
v -0.244385 -0.589998 1.476923
v -0.165284 -0.616849 1.476923
v -0.083355 -0.633146 1.476923
v -0.000000 -0.638609 1.476923
v 0.083355 -0.633146 1.476923
v 0.165284 -0.616849 1.476923
v 0.244385 -0.589998 1.476923
v 0.319305 -0.553052 1.476923
v 0.388761 -0.506643 1.476923
v 0.451565 -0.451565 1.476923
v 0.506643 -0.388761 1.476923
v 0.553052 -0.319305 1.476923
v 0.589998 -0.244385 1.476923
v 0.616849 -0.165284 1.476923
v 0.633146 -0.083355 1.476923
v 0.660190 0.000000 1.538462
v 0.654542 0.086172 1.538462
v 0.637695 0.170870 1.538462
v 0.609936 0.252644 1.538462
v 0.571742 0.330095 1.538462
v 0.523764 0.401898 1.538462
v 0.466825 0.466825 1.538462
v 0.401898 0.523764 1.538462
v 0.330095 0.571742 1.538462
v 0.252644 0.609936 1.538462
v 0.170870 0.637695 1.538462
v 0.086172 0.654542 1.538462
v 0.000000 0.660190 1.538462
v -0.086172 0.654542 1.538462
v -0.170870 0.637695 1.538462
v -0.252644 0.609936 1.538462
v -0.330095 0.571742 1.538462
v -0.401898 0.523764 1.538462
v -0.466825 0.466825 1.538462
v -0.523764 0.401898 1.538462
v -0.571742 0.330095 1.538462
v -0.609936 0.252644 1.538462
v -0.637695 0.170870 1.538462
v -0.654542 0.086172 1.538462
v -0.660190 0.000000 1.538462
v -0.654542 -0.086172 1.538462
v -0.637695 -0.170870 1.538462
v -0.609936 -0.252644 1.538462
v -0.571742 -0.330095 1.538462
v -0.523764 -0.401898 1.538462
v -0.466825 -0.466825 1.538462
v -0.401898 -0.523764 1.538462
v -0.330095 -0.571742 1.538462
v -0.252644 -0.609936 1.538462
v -0.170870 -0.637695 1.538462
v -0.086172 -0.654542 1.538462
v -0.000000 -0.660190 1.538462
v 0.086172 -0.654542 1.538462
v 0.170870 -0.637695 1.538462
v 0.252644 -0.609936 1.538462
v 0.330095 -0.571742 1.538462
v 0.401898 -0.523764 1.538462
v 0.466825 -0.466825 1.538462
v 0.523764 -0.401898 1.538462
v 0.571742 -0.330095 1.538462
v 0.609936 -0.252644 1.538462
v 0.637695 -0.170870 1.538462
v 0.654542 -0.086172 1.538462
v 0.679668 0.000000 1.600000
v 0.673853 0.088714 1.600000
v 0.656509 0.175911 1.600000
v 0.627931 0.260098 1.600000
v 0.588609 0.339834 1.600000
v 0.539217 0.413755 1.600000
v 0.480598 0.480598 1.600000
v 0.413755 0.539217 1.600000
v 0.339834 0.588609 1.600000
v 0.260098 0.627931 1.600000
v 0.175911 0.656509 1.600000
v 0.088714 0.673853 1.600000
v 0.000000 0.679668 1.600000
v -0.088714 0.673853 1.600000
v -0.175911 0.656509 1.600000
v -0.260098 0.627931 1.600000
v -0.339834 0.588609 1.600000
v -0.413755 0.539217 1.600000
v -0.480598 0.480598 1.600000
v -0.539217 0.413755 1.600000
v -0.588609 0.339834 1.600000
v -0.627931 0.260098 1.600000
v -0.656509 0.175911 1.600000
v -0.673853 0.088714 1.600000
v -0.679668 0.000000 1.600000
v -0.673853 -0.088714 1.600000
v -0.656509 -0.175911 1.600000
v -0.627931 -0.260098 1.600000
v -0.588609 -0.339834 1.600000
v -0.539217 -0.413755 1.600000
v -0.480598 -0.480598 1.600000
v -0.413755 -0.539217 1.600000
v -0.339834 -0.588609 1.600000
v -0.260098 -0.627931 1.600000
v -0.175911 -0.656509 1.600000
v -0.088714 -0.673853 1.600000
v -0.000000 -0.679668 1.600000
v 0.088714 -0.673853 1.600000
v 0.175911 -0.656509 1.600000
v 0.260098 -0.627931 1.600000
v 0.339834 -0.588609 1.600000
v 0.413755 -0.539217 1.600000
v 0.480598 -0.480598 1.600000
v 0.539217 -0.413755 1.600000
v 0.588609 -0.339834 1.600000
v 0.627931 -0.260098 1.600000
v 0.656509 -0.175911 1.600000
v 0.673853 -0.088714 1.600000
v 0.697246 0.000000 1.661538
v 0.691281 0.091009 1.661538
v 0.673488 0.180461 1.661538
v 0.644172 0.266825 1.661538
v 0.603833 0.348623 1.661538
v 0.553163 0.424457 1.661538
v 0.493028 0.493028 1.661538
v 0.424457 0.553163 1.661538
v 0.348623 0.603833 1.661538
v 0.266825 0.644172 1.661538
v 0.180461 0.673488 1.661538
v 0.091009 0.691281 1.661538
v 0.000000 0.697246 1.661538
v -0.091009 0.691281 1.661538
v -0.180461 0.673488 1.661538
v -0.266825 0.644172 1.661538
v -0.348623 0.603833 1.661538
v -0.424457 0.553163 1.661538
v -0.493028 0.493028 1.661538
v -0.553163 0.424457 1.661538
v -0.603833 0.348623 1.661538
v -0.644172 0.266825 1.661538
v -0.673488 0.180461 1.661538
v -0.691281 0.091009 1.661538
v -0.697246 0.000000 1.661538
v -0.691281 -0.091009 1.661538
v -0.673488 -0.180461 1.661538
v -0.644172 -0.266825 1.661538
v -0.603833 -0.348623 1.661538
v -0.553163 -0.424457 1.661538
v -0.493028 -0.493028 1.661538
v -0.424457 -0.553163 1.661538
v -0.348623 -0.603833 1.661538
v -0.266825 -0.644172 1.661538
v -0.180461 -0.673488 1.661538
v -0.091009 -0.691281 1.661538
v -0.000000 -0.697246 1.661538
v 0.091009 -0.691281 1.661538
v 0.180461 -0.673488 1.661538
v 0.266825 -0.644172 1.661538
v 0.348623 -0.603833 1.661538
v 0.424457 -0.553163 1.661538
v 0.493028 -0.493028 1.661538
v 0.553163 -0.424457 1.661538
v 0.603833 -0.348623 1.661538
v 0.644172 -0.266825 1.661538
v 0.673488 -0.180461 1.661538
v 0.691281 -0.091009 1.661538
v 0.713112 0.000000 1.723077
v 0.707011 0.093080 1.723077
v 0.688813 0.184567 1.723077
v 0.658829 0.272896 1.723077
v 0.617573 0.356556 1.723077
v 0.565749 0.434115 1.723077
v 0.504246 0.504246 1.723077
v 0.434115 0.565749 1.723077
v 0.356556 0.617573 1.723077
v 0.272896 0.658829 1.723077
v 0.184567 0.688813 1.723077
v 0.093080 0.707011 1.723077
v 0.000000 0.713112 1.723077
v -0.093080 0.707011 1.723077
v -0.184567 0.688813 1.723077
v -0.272896 0.658829 1.723077
v -0.356556 0.617573 1.723077
v -0.434115 0.565749 1.723077
v -0.504246 0.504246 1.723077
v -0.565749 0.434115 1.723077
v -0.617573 0.356556 1.723077
v -0.658829 0.272896 1.723077
v -0.688813 0.184567 1.723077
v -0.707011 0.093080 1.723077
v -0.713112 0.000000 1.723077
v -0.707011 -0.093080 1.723077
v -0.688813 -0.184567 1.723077
v -0.658829 -0.272896 1.723077
v -0.617573 -0.356556 1.723077
v -0.565749 -0.434115 1.723077
v -0.504246 -0.504246 1.723077
v -0.434115 -0.565749 1.723077
v -0.356556 -0.617573 1.723077
v -0.272896 -0.658829 1.723077
v -0.184567 -0.688813 1.723077
v -0.093080 -0.707011 1.723077
v -0.000000 -0.713112 1.723077
v 0.093080 -0.707011 1.723077
v 0.184567 -0.688813 1.723077
v 0.272896 -0.658829 1.723077
v 0.356556 -0.617573 1.723077
v 0.434115 -0.565749 1.723077
v 0.504246 -0.504246 1.723077
v 0.565749 -0.434115 1.723077
v 0.617573 -0.356556 1.723077
v 0.658829 -0.272896 1.723077
v 0.688813 -0.184567 1.723077
v 0.707011 -0.093080 1.723077
v 0.727430 0.000000 1.784615
v 0.721207 0.094949 1.784615
v 0.702644 0.188273 1.784615
v 0.672058 0.278375 1.784615
v 0.629973 0.363715 1.784615
v 0.577109 0.442831 1.784615
v 0.514371 0.514371 1.784615
v 0.442831 0.577109 1.784615
v 0.363715 0.629973 1.784615
v 0.278375 0.672058 1.784615
v 0.188273 0.702644 1.784615
v 0.094949 0.721207 1.784615
v 0.000000 0.727430 1.784615
v -0.094949 0.721207 1.784615
v -0.188273 0.702644 1.784615
v -0.278375 0.672058 1.784615
v -0.363715 0.629973 1.784615
v -0.442831 0.577109 1.784615
v -0.514371 0.514371 1.784615
v -0.577109 0.442831 1.784615
v -0.629973 0.363715 1.784615
v -0.672058 0.278375 1.784615
v -0.702644 0.188273 1.784615
v -0.721207 0.094949 1.784615
v -0.727430 0.000000 1.784615
v -0.721207 -0.094949 1.784615
v -0.702644 -0.188273 1.784615
v -0.672058 -0.278375 1.784615
v -0.629973 -0.363715 1.784615
v -0.577109 -0.442831 1.784615
v -0.514371 -0.514371 1.784615
v -0.442831 -0.577109 1.784615
v -0.363715 -0.629973 1.784615
v -0.278375 -0.672058 1.784615
v -0.188273 -0.702644 1.784615
v -0.094949 -0.721207 1.784615
v -0.000000 -0.727430 1.784615
v 0.094949 -0.721207 1.784615
v 0.188273 -0.702644 1.784615
v 0.278375 -0.672058 1.784615
v 0.363715 -0.629973 1.784615
v 0.442831 -0.577109 1.784615
v 0.514371 -0.514371 1.784615
v 0.577109 -0.442831 1.784615
v 0.629973 -0.363715 1.784615
v 0.672058 -0.278375 1.784615
v 0.702644 -0.188273 1.784615
v 0.721207 -0.094949 1.784615
v 0.740353 0.000000 1.846154
v 0.734019 0.096635 1.846154
v 0.715126 0.191617 1.846154
v 0.683997 0.283321 1.846154
v 0.641165 0.370177 1.846154
v 0.587362 0.450698 1.846154
v 0.523509 0.523509 1.846154
v 0.450698 0.587362 1.846154
v 0.370177 0.641165 1.846154
v 0.283321 0.683997 1.846154
v 0.191617 0.715126 1.846154
v 0.096635 0.734019 1.846154
v 0.000000 0.740353 1.846154
v -0.096635 0.734019 1.846154
v -0.191617 0.715126 1.846154
v -0.283321 0.683997 1.846154
v -0.370177 0.641165 1.846154
v -0.450698 0.587362 1.846154
v -0.523509 0.523509 1.846154
v -0.587362 0.450698 1.846154
v -0.641165 0.370177 1.846154
v -0.683997 0.283321 1.846154
v -0.715126 0.191617 1.846154
v -0.734019 0.096635 1.846154
v -0.740353 0.000000 1.846154
v -0.734019 -0.096635 1.846154
v -0.715126 -0.191617 1.846154
v -0.683997 -0.283321 1.846154
v -0.641165 -0.370177 1.846154
v -0.587362 -0.450698 1.846154
v -0.523509 -0.523509 1.846154
v -0.450698 -0.587362 1.846154
v -0.370177 -0.641165 1.846154
v -0.283321 -0.683997 1.846154
v -0.191617 -0.715126 1.846154
v -0.096635 -0.734019 1.846154
v -0.000000 -0.740353 1.846154
v 0.096635 -0.734019 1.846154
v 0.191617 -0.715126 1.846154
v 0.283321 -0.683997 1.846154
v 0.370177 -0.641165 1.846154
v 0.450698 -0.587362 1.846154
v 0.523509 -0.523509 1.846154
v 0.587362 -0.450698 1.846154
v 0.641165 -0.370177 1.846154
v 0.683997 -0.283321 1.846154
v 0.715126 -0.191617 1.846154
v 0.734019 -0.096635 1.846154
v 0.752016 0.000000 1.907692
v 0.745583 0.098158 1.907692
v 0.726392 0.194636 1.907692
v 0.694772 0.287784 1.907692
v 0.651265 0.376008 1.907692
v 0.596615 0.457798 1.907692
v 0.531756 0.531756 1.907692
v 0.457798 0.596615 1.907692
v 0.376008 0.651265 1.907692
v 0.287784 0.694772 1.907692
v 0.194636 0.726392 1.907692
v 0.098158 0.745583 1.907692
v 0.000000 0.752016 1.907692
v -0.098158 0.745583 1.907692
v -0.194636 0.726392 1.907692
v -0.287784 0.694772 1.907692
v -0.376008 0.651265 1.907692
v -0.457798 0.596615 1.907692
v -0.531756 0.531756 1.907692
v -0.596615 0.457798 1.907692
v -0.651265 0.376008 1.907692
v -0.694772 0.287784 1.907692
v -0.726392 0.194636 1.907692
v -0.745583 0.098158 1.907692
v -0.752016 0.000000 1.907692
v -0.745583 -0.098158 1.907692
v -0.726392 -0.194636 1.907692
v -0.694772 -0.287784 1.907692
v -0.651265 -0.376008 1.907692
v -0.596615 -0.457798 1.907692
v -0.531756 -0.531756 1.907692
v -0.457798 -0.596615 1.907692
v -0.376008 -0.651265 1.907692
v -0.287784 -0.694772 1.907692
v -0.194636 -0.726392 1.907692
v -0.098158 -0.745583 1.907692
v -0.000000 -0.752016 1.907692
v 0.098158 -0.745583 1.907692
v 0.194636 -0.726392 1.907692
v 0.287784 -0.694772 1.907692
v 0.376008 -0.651265 1.907692
v 0.457798 -0.596615 1.907692
v 0.531756 -0.531756 1.907692
v 0.596615 -0.457798 1.907692
v 0.651265 -0.376008 1.907692
v 0.694772 -0.287784 1.907692
v 0.726392 -0.194636 1.907692
v 0.745583 -0.098158 1.907692
v 0.762542 0.000000 1.969231
v 0.756019 0.099532 1.969231
v 0.736559 0.197361 1.969231
v 0.704497 0.291812 1.969231
v 0.660381 0.381271 1.969231
v 0.604966 0.464206 1.969231
v 0.539199 0.539199 1.969231
v 0.464206 0.604966 1.969231
v 0.381271 0.660381 1.969231
v 0.291812 0.704497 1.969231
v 0.197361 0.736559 1.969231
v 0.099532 0.756019 1.969231
v 0.000000 0.762542 1.969231
v -0.099532 0.756019 1.969231
v -0.197361 0.736559 1.969231
v -0.291812 0.704497 1.969231
v -0.381271 0.660381 1.969231
v -0.464206 0.604966 1.969231
v -0.539199 0.539199 1.969231
v -0.604966 0.464206 1.969231
v -0.660381 0.381271 1.969231
v -0.704497 0.291812 1.969231
v -0.736559 0.197361 1.969231
v -0.756019 0.099532 1.969231
v -0.762542 0.000000 1.969231
v -0.756019 -0.099532 1.969231
v -0.736559 -0.197361 1.969231
v -0.704497 -0.291812 1.969231
v -0.660381 -0.381271 1.969231
v -0.604966 -0.464206 1.969231
v -0.539199 -0.539199 1.969231
v -0.464206 -0.604966 1.969231
v -0.381271 -0.660381 1.969231
v -0.291812 -0.704497 1.969231
v -0.197361 -0.736559 1.969231
v -0.099532 -0.756019 1.969231
v -0.000000 -0.762542 1.969231
v 0.099532 -0.756019 1.969231
v 0.197361 -0.736559 1.969231
v 0.291812 -0.704497 1.969231
v 0.381271 -0.660381 1.969231
v 0.464206 -0.604966 1.969231
v 0.539199 -0.539199 1.969231
v 0.604966 -0.464206 1.969231
v 0.660381 -0.381271 1.969231
v 0.704497 -0.291812 1.969231
v 0.736559 -0.197361 1.969231
v 0.756019 -0.099532 1.969231
v 0.772043 0.000000 2.030769
v 0.765438 0.100772 2.030769
v 0.745736 0.199819 2.030769
v 0.713274 0.295448 2.030769
v 0.668608 0.386021 2.030769
v 0.612503 0.469990 2.030769
v 0.545917 0.545917 2.030769
v 0.469990 0.612503 2.030769
v 0.386021 0.668608 2.030769
v 0.295448 0.713274 2.030769
v 0.199819 0.745736 2.030769
v 0.100772 0.765438 2.030769
v 0.000000 0.772043 2.030769
v -0.100772 0.765438 2.030769
v -0.199819 0.745736 2.030769
v -0.295448 0.713274 2.030769
v -0.386021 0.668608 2.030769
v -0.469990 0.612503 2.030769
v -0.545917 0.545917 2.030769
v -0.612503 0.469990 2.030769
v -0.668608 0.386021 2.030769
v -0.713274 0.295448 2.030769
v -0.745736 0.199819 2.030769
v -0.765438 0.100772 2.030769
v -0.772043 0.000000 2.030769
v -0.765438 -0.100772 2.030769
v -0.745736 -0.199819 2.030769
v -0.713274 -0.295448 2.030769
v -0.668608 -0.386021 2.030769
v -0.612503 -0.469990 2.030769
v -0.545917 -0.545917 2.030769
v -0.469990 -0.612503 2.030769
v -0.386021 -0.668608 2.030769
v -0.295448 -0.713274 2.030769
v -0.199819 -0.745736 2.030769
v -0.100772 -0.765438 2.030769
v -0.000000 -0.772043 2.030769
v 0.100772 -0.765438 2.030769
v 0.199819 -0.745736 2.030769
v 0.295448 -0.713274 2.030769
v 0.386021 -0.668608 2.030769
v 0.469990 -0.612503 2.030769
v 0.545917 -0.545917 2.030769
v 0.612503 -0.469990 2.030769
v 0.668608 -0.386021 2.030769
v 0.713274 -0.295448 2.030769
v 0.745736 -0.199819 2.030769
v 0.765438 -0.100772 2.030769
v 0.780617 0.000000 2.092308
v 0.773938 0.101891 2.092308
v 0.754018 0.202038 2.092308
v 0.721196 0.298729 2.092308
v 0.676034 0.390308 2.092308
v 0.619305 0.475209 2.092308
v 0.551979 0.551979 2.092308
v 0.475209 0.619305 2.092308
v 0.390308 0.676034 2.092308
v 0.298729 0.721196 2.092308
v 0.202038 0.754018 2.092308
v 0.101891 0.773938 2.092308
v 0.000000 0.780617 2.092308
v -0.101891 0.773938 2.092308
v -0.202038 0.754018 2.092308
v -0.298729 0.721196 2.092308
v -0.390308 0.676034 2.092308
v -0.475209 0.619305 2.092308
v -0.551979 0.551979 2.092308
v -0.619305 0.475209 2.092308
v -0.676034 0.390308 2.092308
v -0.721196 0.298729 2.092308
v -0.754018 0.202038 2.092308
v -0.773938 0.101891 2.092308
v -0.780617 0.000000 2.092308
v -0.773938 -0.101891 2.092308
v -0.754018 -0.202038 2.092308
v -0.721196 -0.298729 2.092308
v -0.676034 -0.390308 2.092308
v -0.619305 -0.475209 2.092308
v -0.551979 -0.551979 2.092308
v -0.475209 -0.619305 2.092308
v -0.390308 -0.676034 2.092308
v -0.298729 -0.721196 2.092308
v -0.202038 -0.754018 2.092308
v -0.101891 -0.773938 2.092308
v -0.000000 -0.780617 2.092308
v 0.101891 -0.773938 2.092308
v 0.202038 -0.754018 2.092308
v 0.298729 -0.721196 2.092308
v 0.390308 -0.676034 2.092308
v 0.475209 -0.619305 2.092308
v 0.551979 -0.551979 2.092308
v 0.619305 -0.475209 2.092308
v 0.676034 -0.390308 2.092308
v 0.721196 -0.298729 2.092308
v 0.754018 -0.202038 2.092308
v 0.773938 -0.101891 2.092308
v 0.788355 0.000000 2.153846
v 0.781610 0.102901 2.153846
v 0.761492 0.204041 2.153846
v 0.728345 0.301690 2.153846
v 0.682735 0.394177 2.153846
v 0.625444 0.479920 2.153846
v 0.557451 0.557451 2.153846
v 0.479920 0.625444 2.153846
v 0.394177 0.682735 2.153846
v 0.301690 0.728345 2.153846
v 0.204041 0.761492 2.153846
v 0.102901 0.781610 2.153846
v 0.000000 0.788355 2.153846
v -0.102901 0.781610 2.153846
v -0.204041 0.761492 2.153846
v -0.301690 0.728345 2.153846
v -0.394177 0.682735 2.153846
v -0.479920 0.625444 2.153846
v -0.557451 0.557451 2.153846
v -0.625444 0.479920 2.153846
v -0.682735 0.394177 2.153846
v -0.728345 0.301690 2.153846
v -0.761492 0.204041 2.153846
v -0.781610 0.102901 2.153846
v -0.788355 0.000000 2.153846
v -0.781610 -0.102901 2.153846
v -0.761492 -0.204041 2.153846
v -0.728345 -0.301690 2.153846
v -0.682735 -0.394177 2.153846
v -0.625444 -0.479920 2.153846
v -0.557451 -0.557451 2.153846
v -0.479920 -0.625444 2.153846
v -0.394177 -0.682735 2.153846
v -0.301690 -0.728345 2.153846
v -0.204041 -0.761492 2.153846
v -0.102901 -0.781610 2.153846
v -0.000000 -0.788355 2.153846
v 0.102901 -0.781610 2.153846
v 0.204041 -0.761492 2.153846
v 0.301690 -0.728345 2.153846
v 0.394177 -0.682735 2.153846
v 0.479920 -0.625444 2.153846
v 0.557451 -0.557451 2.153846
v 0.625444 -0.479920 2.153846
v 0.682735 -0.394177 2.153846
v 0.728345 -0.301690 2.153846
v 0.761492 -0.204041 2.153846
v 0.781610 -0.102901 2.153846
v 0.795339 0.000000 2.215385
v 0.788535 0.103813 2.215385
v 0.768238 0.205849 2.215385
v 0.734797 0.304363 2.215385
v 0.688784 0.397669 2.215385
v 0.630985 0.484172 2.215385
v 0.562389 0.562389 2.215385
v 0.484172 0.630985 2.215385
v 0.397669 0.688784 2.215385
v 0.304363 0.734797 2.215385
v 0.205849 0.768238 2.215385
v 0.103813 0.788535 2.215385
v 0.000000 0.795339 2.215385
v -0.103813 0.788535 2.215385
v -0.205849 0.768238 2.215385
v -0.304363 0.734797 2.215385
v -0.397669 0.688784 2.215385
v -0.484172 0.630985 2.215385
v -0.562389 0.562389 2.215385
v -0.630985 0.484172 2.215385
v -0.688784 0.397669 2.215385
v -0.734797 0.304363 2.215385
v -0.768238 0.205849 2.215385
v -0.788535 0.103813 2.215385
v -0.795339 0.000000 2.215385
v -0.788535 -0.103813 2.215385
v -0.768238 -0.205849 2.215385
v -0.734797 -0.304363 2.215385
v -0.688784 -0.397669 2.215385
v -0.630985 -0.484172 2.215385
v -0.562389 -0.562389 2.215385
v -0.484172 -0.630985 2.215385
v -0.397669 -0.688784 2.215385
v -0.304363 -0.734797 2.215385
v -0.205849 -0.768238 2.215385
v -0.103813 -0.788535 2.215385
v -0.000000 -0.795339 2.215385
v 0.103813 -0.788535 2.215385
v 0.205849 -0.768238 2.215385
v 0.304363 -0.734797 2.215385
v 0.397669 -0.688784 2.215385
v 0.484172 -0.630985 2.215385
v 0.562389 -0.562389 2.215385
v 0.630985 -0.484172 2.215385
v 0.688784 -0.397669 2.215385
v 0.734797 -0.304363 2.215385
v 0.768238 -0.205849 2.215385
v 0.788535 -0.103813 2.215385
v 0.801642 0.000000 2.276923
v 0.794784 0.104635 2.276923
v 0.774327 0.207480 2.276923
v 0.740621 0.306775 2.276923
v 0.694242 0.400821 2.276923
v 0.635985 0.488009 2.276923
v 0.566846 0.566846 2.276923
v 0.488009 0.635985 2.276923
v 0.400821 0.694242 2.276923
v 0.306775 0.740621 2.276923
v 0.207480 0.774327 2.276923
v 0.104635 0.794784 2.276923
v 0.000000 0.801642 2.276923
v -0.104635 0.794784 2.276923
v -0.207480 0.774327 2.276923
v -0.306775 0.740621 2.276923
v -0.400821 0.694242 2.276923
v -0.488009 0.635985 2.276923
v -0.566846 0.566846 2.276923
v -0.635985 0.488009 2.276923
v -0.694242 0.400821 2.276923
v -0.740621 0.306775 2.276923
v -0.774327 0.207480 2.276923
v -0.794784 0.104635 2.276923
v -0.801642 0.000000 2.276923
v -0.794784 -0.104635 2.276923
v -0.774327 -0.207480 2.276923
v -0.740621 -0.306775 2.276923
v -0.694242 -0.400821 2.276923
v -0.635985 -0.488009 2.276923
v -0.566846 -0.566846 2.276923
v -0.488009 -0.635985 2.276923
v -0.400821 -0.694242 2.276923
v -0.306775 -0.740621 2.276923
v -0.207480 -0.774327 2.276923
v -0.104635 -0.794784 2.276923
v -0.000000 -0.801642 2.276923
v 0.104635 -0.794784 2.276923
v 0.207480 -0.774327 2.276923
v 0.306775 -0.740621 2.276923
v 0.400821 -0.694242 2.276923
v 0.488009 -0.635985 2.276923
v 0.566846 -0.566846 2.276923
v 0.635985 -0.488009 2.276923
v 0.694242 -0.400821 2.276923
v 0.740621 -0.306775 2.276923
v 0.774327 -0.207480 2.276923
v 0.794784 -0.104635 2.276923
v 0.807331 0.000000 2.338462
v 0.800424 0.105378 2.338462
v 0.779822 0.208953 2.338462
v 0.745876 0.308952 2.338462
v 0.699169 0.403665 2.338462
v 0.640499 0.491472 2.338462
v 0.570869 0.570869 2.338462
v 0.491472 0.640499 2.338462
v 0.403665 0.699169 2.338462
v 0.308952 0.745876 2.338462
v 0.208953 0.779822 2.338462
v 0.105378 0.800424 2.338462
v 0.000000 0.807331 2.338462
v -0.105378 0.800424 2.338462
v -0.208953 0.779822 2.338462
v -0.308952 0.745876 2.338462
v -0.403665 0.699169 2.338462
v -0.491472 0.640499 2.338462
v -0.570869 0.570869 2.338462
v -0.640499 0.491472 2.338462
v -0.699169 0.403665 2.338462
v -0.745876 0.308952 2.338462
v -0.779822 0.208953 2.338462
v -0.800424 0.105378 2.338462
v -0.807331 0.000000 2.338462
v -0.800424 -0.105378 2.338462
v -0.779822 -0.208953 2.338462
v -0.745876 -0.308952 2.338462
v -0.699169 -0.403665 2.338462
v -0.640499 -0.491472 2.338462
v -0.570869 -0.570869 2.338462
v -0.491472 -0.640499 2.338462
v -0.403665 -0.699169 2.338462
v -0.308952 -0.745876 2.338462
v -0.208953 -0.779822 2.338462
v -0.105378 -0.800424 2.338462
v -0.000000 -0.807331 2.338462
v 0.105378 -0.800424 2.338462
v 0.208953 -0.779822 2.338462
v 0.308952 -0.745876 2.338462
v 0.403665 -0.699169 2.338462
v 0.491472 -0.640499 2.338462
v 0.570869 -0.570869 2.338462
v 0.640499 -0.491472 2.338462
v 0.699169 -0.403665 2.338462
v 0.745876 -0.308952 2.338462
v 0.779822 -0.208953 2.338462
v 0.800424 -0.105378 2.338462
v 0.812465 0.000000 2.400000
v 0.805514 0.106048 2.400000
v 0.784781 0.210281 2.400000
v 0.750620 0.310917 2.400000
v 0.703615 0.406232 2.400000
v 0.644572 0.494597 2.400000
v 0.574499 0.574499 2.400000
v 0.494597 0.644572 2.400000
v 0.406232 0.703615 2.400000
v 0.310917 0.750620 2.400000
v 0.210281 0.784781 2.400000
v 0.106048 0.805514 2.400000
v 0.000000 0.812465 2.400000
v -0.106048 0.805514 2.400000
v -0.210281 0.784781 2.400000
v -0.310917 0.750620 2.400000
v -0.406232 0.703615 2.400000
v -0.494597 0.644572 2.400000
v -0.574499 0.574499 2.400000
v -0.644572 0.494597 2.400000
v -0.703615 0.406232 2.400000
v -0.750620 0.310917 2.400000
v -0.784781 0.210281 2.400000
v -0.805514 0.106048 2.400000
v -0.812465 0.000000 2.400000
v -0.805514 -0.106048 2.400000
v -0.784781 -0.210281 2.400000
v -0.750620 -0.310917 2.400000
v -0.703615 -0.406232 2.400000
v -0.644572 -0.494597 2.400000
v -0.574499 -0.574499 2.400000
v -0.494597 -0.644572 2.400000
v -0.406232 -0.703615 2.400000
v -0.310917 -0.750620 2.400000
v -0.210281 -0.784781 2.400000
v -0.106048 -0.805514 2.400000
v -0.000000 -0.812465 2.400000
v 0.106048 -0.805514 2.400000
v 0.210281 -0.784781 2.400000
v 0.310917 -0.750620 2.400000
v 0.406232 -0.703615 2.400000
v 0.494597 -0.644572 2.400000
v 0.574499 -0.574499 2.400000
v 0.644572 -0.494597 2.400000
v 0.703615 -0.406232 2.400000
v 0.750620 -0.310917 2.400000
v 0.784781 -0.210281 2.400000
v 0.805514 -0.106048 2.400000
v 0.000000 0.000000 0.000000
v 0.000000 0.000000 2.400000
f 1 2 50 49
f 2 3 51 50
f 3 4 52 51
f 4 5 53 52
f 5 6 54 53
f 6 7 55 54
f 7 8 56 55
f 8 9 57 56
f 9 10 58 57
f 10 11 59 58
f 11 12 60 59
f 12 13 61 60
f 13 14 62 61
f 14 15 63 62
f 15 16 64 63
f 16 17 65 64
f 17 18 66 65
f 18 19 67 66
f 19 20 68 67
f 20 21 69 68
f 21 22 70 69
f 22 23 71 70
f 23 24 72 71
f 24 25 73 72
f 25 26 74 73
f 26 27 75 74
f 27 28 76 75
f 28 29 77 76
f 29 30 78 77
f 30 31 79 78
f 31 32 80 79
f 32 33 81 80
f 33 34 82 81
f 34 35 83 82
f 35 36 84 83
f 36 37 85 84
f 37 38 86 85
f 38 39 87 86
f 39 40 88 87
f 40 41 89 88
f 41 42 90 89
f 42 43 91 90
f 43 44 92 91
f 44 45 93 92
f 45 46 94 93
f 46 47 95 94
f 47 48 96 95
f 48 1 49 96
f 49 50 98 97
f 50 51 99 98
f 51 52 100 99
f 52 53 101 100
f 53 54 102 101
f 54 55 103 102
f 55 56 104 103
f 56 57 105 104
f 57 58 106 105
f 58 59 107 106
f 59 60 108 107
f 60 61 109 108
f 61 62 110 109
f 62 63 111 110
f 63 64 112 111
f 64 65 113 112
f 65 66 114 113
f 66 67 115 114
f 67 68 116 115
f 68 69 117 116
f 69 70 118 117
f 70 71 119 118
f 71 72 120 119
f 72 73 121 120
f 73 74 122 121
f 74 75 123 122
f 75 76 124 123
f 76 77 125 124
f 77 78 126 125
f 78 79 127 126
f 79 80 128 127
f 80 81 129 128
f 81 82 130 129
f 82 83 131 130
f 83 84 132 131
f 84 85 133 132
f 85 86 134 133
f 86 87 135 134
f 87 88 136 135
f 88 89 137 136
f 89 90 138 137
f 90 91 139 138
f 91 92 140 139
f 92 93 141 140
f 93 94 142 141
f 94 95 143 142
f 95 96 144 143
f 96 49 97 144
f 97 98 146 145
f 98 99 147 146
f 99 100 148 147
f 100 101 149 148
f 101 102 150 149
f 102 103 151 150
f 103 104 152 151
f 104 105 153 152
f 105 106 154 153
f 106 107 155 154
f 107 108 156 155
f 108 109 157 156
f 109 110 158 157
f 110 111 159 158
f 111 112 160 159
f 112 113 161 160
f 113 114 162 161
f 114 115 163 162
f 115 116 164 163
f 116 117 165 164
f 117 118 166 165
f 118 119 167 166
f 119 120 168 167
f 120 121 169 168
f 121 122 170 169
f 122 123 171 170
f 123 124 172 171
f 124 125 173 172
f 125 126 174 173
f 126 127 175 174
f 127 128 176 175
f 128 129 177 176
f 129 130 178 177
f 130 131 179 178
f 131 132 180 179
f 132 133 181 180
f 133 134 182 181
f 134 135 183 182
f 135 136 184 183
f 136 137 185 184
f 137 138 186 185
f 138 139 187 186
f 139 140 188 187
f 140 141 189 188
f 141 142 190 189
f 142 143 191 190
f 143 144 192 191
f 144 97 145 192
f 145 146 194 193
f 146 147 195 194
f 147 148 196 195
f 148 149 197 196
f 149 150 198 197
f 150 151 199 198
f 151 152 200 199
f 152 153 201 200
f 153 154 202 201
f 154 155 203 202
f 155 156 204 203
f 156 157 205 204
f 157 158 206 205
f 158 159 207 206
f 159 160 208 207
f 160 161 209 208
f 161 162 210 209
f 162 163 211 210
f 163 164 212 211
f 164 165 213 212
f 165 166 214 213
f 166 167 215 214
f 167 168 216 215
f 168 169 217 216
f 169 170 218 217
f 170 171 219 218
f 171 172 220 219
f 172 173 221 220
f 173 174 222 221
f 174 175 223 222
f 175 176 224 223
f 176 177 225 224
f 177 178 226 225
f 178 179 227 226
f 179 180 228 227
f 180 181 229 228
f 181 182 230 229
f 182 183 231 230
f 183 184 232 231
f 184 185 233 232
f 185 186 234 233
f 186 187 235 234
f 187 188 236 235
f 188 189 237 236
f 189 190 238 237
f 190 191 239 238
f 191 192 240 239
f 192 145 193 240
f 193 194 242 241
f 194 195 243 242
f 195 196 244 243
f 196 197 245 244
f 197 198 246 245
f 198 199 247 246
f 199 200 248 247
f 200 201 249 248
f 201 202 250 249
f 202 203 251 250
f 203 204 252 251
f 204 205 253 252
f 205 206 254 253
f 206 207 255 254
f 207 208 256 255
f 208 209 257 256
f 209 210 258 257
f 210 211 259 258
f 211 212 260 259
f 212 213 261 260
f 213 214 262 261
f 214 215 263 262
f 215 216 264 263
f 216 217 265 264
f 217 218 266 265
f 218 219 267 266
f 219 220 268 267
f 220 221 269 268
f 221 222 270 269
f 222 223 271 270
f 223 224 272 271
f 224 225 273 272
f 225 226 274 273
f 226 227 275 274
f 227 228 276 275
f 228 229 277 276
f 229 230 278 277
f 230 231 279 278
f 231 232 280 279
f 232 233 281 280
f 233 234 282 281
f 234 235 283 282
f 235 236 284 283
f 236 237 285 284
f 237 238 286 285
f 238 239 287 286
f 239 240 288 287
f 240 193 241 288
f 241 242 290 289
f 242 243 291 290
f 243 244 292 291
f 244 245 293 292
f 245 246 294 293
f 246 247 295 294
f 247 248 296 295
f 248 249 297 296
f 249 250 298 297
f 250 251 299 298
f 251 252 300 299
f 252 253 301 300
f 253 254 302 301
f 254 255 303 302
f 255 256 304 303
f 256 257 305 304
f 257 258 306 305
f 258 259 307 306
f 259 260 308 307
f 260 261 309 308
f 261 262 310 309
f 262 263 311 310
f 263 264 312 311
f 264 265 313 312
f 265 266 314 313
f 266 267 315 314
f 267 268 316 315
f 268 269 317 316
f 269 270 318 317
f 270 271 319 318
f 271 272 320 319
f 272 273 321 320
f 273 274 322 321
f 274 275 323 322
f 275 276 324 323
f 276 277 325 324
f 277 278 326 325
f 278 279 327 326
f 279 280 328 327
f 280 281 329 328
f 281 282 330 329
f 282 283 331 330
f 283 284 332 331
f 284 285 333 332
f 285 286 334 333
f 286 287 335 334
f 287 288 336 335
f 288 241 289 336
f 289 290 338 337
f 290 291 339 338
f 291 292 340 339
f 292 293 341 340
f 293 294 342 341
f 294 295 343 342
f 295 296 344 343
f 296 297 345 344
f 297 298 346 345
f 298 299 347 346
f 299 300 348 347
f 300 301 349 348
f 301 302 350 349
f 302 303 351 350
f 303 304 352 351
f 304 305 353 352
f 305 306 354 353
f 306 307 355 354
f 307 308 356 355
f 308 309 357 356
f 309 310 358 357
f 310 311 359 358
f 311 312 360 359
f 312 313 361 360
f 313 314 362 361
f 314 315 363 362
f 315 316 364 363
f 316 317 365 364
f 317 318 366 365
f 318 319 367 366
f 319 320 368 367
f 320 321 369 368
f 321 322 370 369
f 322 323 371 370
f 323 324 372 371
f 324 325 373 372
f 325 326 374 373
f 326 327 375 374
f 327 328 376 375
f 328 329 377 376
f 329 330 378 377
f 330 331 379 378
f 331 332 380 379
f 332 333 381 380
f 333 334 382 381
f 334 335 383 382
f 335 336 384 383
f 336 289 337 384
f 337 338 386 385
f 338 339 387 386
f 339 340 388 387
f 340 341 389 388
f 341 342 390 389
f 342 343 391 390
f 343 344 392 391
f 344 345 393 392
f 345 346 394 393
f 346 347 395 394
f 347 348 396 395
f 348 349 397 396
f 349 350 398 397
f 350 351 399 398
f 351 352 400 399
f 352 353 401 400
f 353 354 402 401
f 354 355 403 402
f 355 356 404 403
f 356 357 405 404
f 357 358 406 405
f 358 359 407 406
f 359 360 408 407
f 360 361 409 408
f 361 362 410 409
f 362 363 411 410
f 363 364 412 411
f 364 365 413 412
f 365 366 414 413
f 366 367 415 414
f 367 368 416 415
f 368 369 417 416
f 369 370 418 417
f 370 371 419 418
f 371 372 420 419
f 372 373 421 420
f 373 374 422 421
f 374 375 423 422
f 375 376 424 423
f 376 377 425 424
f 377 378 426 425
f 378 379 427 426
f 379 380 428 427
f 380 381 429 428
f 381 382 430 429
f 382 383 431 430
f 383 384 432 431
f 384 337 385 432
f 385 386 434 433
f 386 387 435 434
f 387 388 436 435
f 388 389 437 436
f 389 390 438 437
f 390 391 439 438
f 391 392 440 439
f 392 393 441 440
f 393 394 442 441
f 394 395 443 442
f 395 396 444 443
f 396 397 445 444
f 397 398 446 445
f 398 399 447 446
f 399 400 448 447
f 400 401 449 448
f 401 402 450 449
f 402 403 451 450
f 403 404 452 451
f 404 405 453 452
f 405 406 454 453
f 406 407 455 454
f 407 408 456 455
f 408 409 457 456
f 409 410 458 457
f 410 411 459 458
f 411 412 460 459
f 412 413 461 460
f 413 414 462 461
f 414 415 463 462
f 415 416 464 463
f 416 417 465 464
f 417 418 466 465
f 418 419 467 466
f 419 420 468 467
f 420 421 469 468
f 421 422 470 469
f 422 423 471 470
f 423 424 472 471
f 424 425 473 472
f 425 426 474 473
f 426 427 475 474
f 427 428 476 475
f 428 429 477 476
f 429 430 478 477
f 430 431 479 478
f 431 432 480 479
f 432 385 433 480
f 433 434 482 481
f 434 435 483 482
f 435 436 484 483
f 436 437 485 484
f 437 438 486 485
f 438 439 487 486
f 439 440 488 487
f 440 441 489 488
f 441 442 490 489
f 442 443 491 490
f 443 444 492 491
f 444 445 493 492
f 445 446 494 493
f 446 447 495 494
f 447 448 496 495
f 448 449 497 496
f 449 450 498 497
f 450 451 499 498
f 451 452 500 499
f 452 453 501 500
f 453 454 502 501
f 454 455 503 502
f 455 456 504 503
f 456 457 505 504
f 457 458 506 505
f 458 459 507 506
f 459 460 508 507
f 460 461 509 508
f 461 462 510 509
f 462 463 511 510
f 463 464 512 511
f 464 465 513 512
f 465 466 514 513
f 466 467 515 514
f 467 468 516 515
f 468 469 517 516
f 469 470 518 517
f 470 471 519 518
f 471 472 520 519
f 472 473 521 520
f 473 474 522 521
f 474 475 523 522
f 475 476 524 523
f 476 477 525 524
f 477 478 526 525
f 478 479 527 526
f 479 480 528 527
f 480 433 481 528
f 481 482 530 529
f 482 483 531 530
f 483 484 532 531
f 484 485 533 532
f 485 486 534 533
f 486 487 535 534
f 487 488 536 535
f 488 489 537 536
f 489 490 538 537
f 490 491 539 538
f 491 492 540 539
f 492 493 541 540
f 493 494 542 541
f 494 495 543 542
f 495 496 544 543
f 496 497 545 544
f 497 498 546 545
f 498 499 547 546
f 499 500 548 547
f 500 501 549 548
f 501 502 550 549
f 502 503 551 550
f 503 504 552 551
f 504 505 553 552
f 505 506 554 553
f 506 507 555 554
f 507 508 556 555
f 508 509 557 556
f 509 510 558 557
f 510 511 559 558
f 511 512 560 559
f 512 513 561 560
f 513 514 562 561
f 514 515 563 562
f 515 516 564 563
f 516 517 565 564
f 517 518 566 565
f 518 519 567 566
f 519 520 568 567
f 520 521 569 568
f 521 522 570 569
f 522 523 571 570
f 523 524 572 571
f 524 525 573 572
f 525 526 574 573
f 526 527 575 574
f 527 528 576 575
f 528 481 529 576
f 529 530 578 577
f 530 531 579 578
f 531 532 580 579
f 532 533 581 580
f 533 534 582 581
f 534 535 583 582
f 535 536 584 583
f 536 537 585 584
f 537 538 586 585
f 538 539 587 586
f 539 540 588 587
f 540 541 589 588
f 541 542 590 589
f 542 543 591 590
f 543 544 592 591
f 544 545 593 592
f 545 546 594 593
f 546 547 595 594
f 547 548 596 595
f 548 549 597 596
f 549 550 598 597
f 550 551 599 598
f 551 552 600 599
f 552 553 601 600
f 553 554 602 601
f 554 555 603 602
f 555 556 604 603
f 556 557 605 604
f 557 558 606 605
f 558 559 607 606
f 559 560 608 607
f 560 561 609 608
f 561 562 610 609
f 562 563 611 610
f 563 564 612 611
f 564 565 613 612
f 565 566 614 613
f 566 567 615 614
f 567 568 616 615
f 568 569 617 616
f 569 570 618 617
f 570 571 619 618
f 571 572 620 619
f 572 573 621 620
f 573 574 622 621
f 574 575 623 622
f 575 576 624 623
f 576 529 577 624
f 577 578 626 625
f 578 579 627 626
f 579 580 628 627
f 580 581 629 628
f 581 582 630 629
f 582 583 631 630
f 583 584 632 631
f 584 585 633 632
f 585 586 634 633
f 586 587 635 634
f 587 588 636 635
f 588 589 637 636
f 589 590 638 637
f 590 591 639 638
f 591 592 640 639
f 592 593 641 640
f 593 594 642 641
f 594 595 643 642
f 595 596 644 643
f 596 597 645 644
f 597 598 646 645
f 598 599 647 646
f 599 600 648 647
f 600 601 649 648
f 601 602 650 649
f 602 603 651 650
f 603 604 652 651
f 604 605 653 652
f 605 606 654 653
f 606 607 655 654
f 607 608 656 655
f 608 609 657 656
f 609 610 658 657
f 610 611 659 658
f 611 612 660 659
f 612 613 661 660
f 613 614 662 661
f 614 615 663 662
f 615 616 664 663
f 616 617 665 664
f 617 618 666 665
f 618 619 667 666
f 619 620 668 667
f 620 621 669 668
f 621 622 670 669
f 622 623 671 670
f 623 624 672 671
f 624 577 625 672
f 625 626 674 673
f 626 627 675 674
f 627 628 676 675
f 628 629 677 676
f 629 630 678 677
f 630 631 679 678
f 631 632 680 679
f 632 633 681 680
f 633 634 682 681
f 634 635 683 682
f 635 636 684 683
f 636 637 685 684
f 637 638 686 685
f 638 639 687 686
f 639 640 688 687
f 640 641 689 688
f 641 642 690 689
f 642 643 691 690
f 643 644 692 691
f 644 645 693 692
f 645 646 694 693
f 646 647 695 694
f 647 648 696 695
f 648 649 697 696
f 649 650 698 697
f 650 651 699 698
f 651 652 700 699
f 652 653 701 700
f 653 654 702 701
f 654 655 703 702
f 655 656 704 703
f 656 657 705 704
f 657 658 706 705
f 658 659 707 706
f 659 660 708 707
f 660 661 709 708
f 661 662 710 709
f 662 663 711 710
f 663 664 712 711
f 664 665 713 712
f 665 666 714 713
f 666 667 715 714
f 667 668 716 715
f 668 669 717 716
f 669 670 718 717
f 670 671 719 718
f 671 672 720 719
f 672 625 673 720
f 673 674 722 721
f 674 675 723 722
f 675 676 724 723
f 676 677 725 724
f 677 678 726 725
f 678 679 727 726
f 679 680 728 727
f 680 681 729 728
f 681 682 730 729
f 682 683 731 730
f 683 684 732 731
f 684 685 733 732
f 685 686 734 733
f 686 687 735 734
f 687 688 736 735
f 688 689 737 736
f 689 690 738 737
f 690 691 739 738
f 691 692 740 739
f 692 693 741 740
f 693 694 742 741
f 694 695 743 742
f 695 696 744 743
f 696 697 745 744
f 697 698 746 745
f 698 699 747 746
f 699 700 748 747
f 700 701 749 748
f 701 702 750 749
f 702 703 751 750
f 703 704 752 751
f 704 705 753 752
f 705 706 754 753
f 706 707 755 754
f 707 708 756 755
f 708 709 757 756
f 709 710 758 757
f 710 711 759 758
f 711 712 760 759
f 712 713 761 760
f 713 714 762 761
f 714 715 763 762
f 715 716 764 763
f 716 717 765 764
f 717 718 766 765
f 718 719 767 766
f 719 720 768 767
f 720 673 721 768
f 721 722 770 769
f 722 723 771 770
f 723 724 772 771
f 724 725 773 772
f 725 726 774 773
f 726 727 775 774
f 727 728 776 775
f 728 729 777 776
f 729 730 778 777
f 730 731 779 778
f 731 732 780 779
f 732 733 781 780
f 733 734 782 781
f 734 735 783 782
f 735 736 784 783
f 736 737 785 784
f 737 738 786 785
f 738 739 787 786
f 739 740 788 787
f 740 741 789 788
f 741 742 790 789
f 742 743 791 790
f 743 744 792 791
f 744 745 793 792
f 745 746 794 793
f 746 747 795 794
f 747 748 796 795
f 748 749 797 796
f 749 750 798 797
f 750 751 799 798
f 751 752 800 799
f 752 753 801 800
f 753 754 802 801
f 754 755 803 802
f 755 756 804 803
f 756 757 805 804
f 757 758 806 805
f 758 759 807 806
f 759 760 808 807
f 760 761 809 808
f 761 762 810 809
f 762 763 811 810
f 763 764 812 811
f 764 765 813 812
f 765 766 814 813
f 766 767 815 814
f 767 768 816 815
f 768 721 769 816
f 769 770 818 817
f 770 771 819 818
f 771 772 820 819
f 772 773 821 820
f 773 774 822 821
f 774 775 823 822
f 775 776 824 823
f 776 777 825 824
f 777 778 826 825
f 778 779 827 826
f 779 780 828 827
f 780 781 829 828
f 781 782 830 829
f 782 783 831 830
f 783 784 832 831
f 784 785 833 832
f 785 786 834 833
f 786 787 835 834
f 787 788 836 835
f 788 789 837 836
f 789 790 838 837
f 790 791 839 838
f 791 792 840 839
f 792 793 841 840
f 793 794 842 841
f 794 795 843 842
f 795 796 844 843
f 796 797 845 844
f 797 798 846 845
f 798 799 847 846
f 799 800 848 847
f 800 801 849 848
f 801 802 850 849
f 802 803 851 850
f 803 804 852 851
f 804 805 853 852
f 805 806 854 853
f 806 807 855 854
f 807 808 856 855
f 808 809 857 856
f 809 810 858 857
f 810 811 859 858
f 811 812 860 859
f 812 813 861 860
f 813 814 862 861
f 814 815 863 862
f 815 816 864 863
f 816 769 817 864
f 817 818 866 865
f 818 819 867 866
f 819 820 868 867
f 820 821 869 868
f 821 822 870 869
f 822 823 871 870
f 823 824 872 871
f 824 825 873 872
f 825 826 874 873
f 826 827 875 874
f 827 828 876 875
f 828 829 877 876
f 829 830 878 877
f 830 831 879 878
f 831 832 880 879
f 832 833 881 880
f 833 834 882 881
f 834 835 883 882
f 835 836 884 883
f 836 837 885 884
f 837 838 886 885
f 838 839 887 886
f 839 840 888 887
f 840 841 889 888
f 841 842 890 889
f 842 843 891 890
f 843 844 892 891
f 844 845 893 892
f 845 846 894 893
f 846 847 895 894
f 847 848 896 895
f 848 849 897 896
f 849 850 898 897
f 850 851 899 898
f 851 852 900 899
f 852 853 901 900
f 853 854 902 901
f 854 855 903 902
f 855 856 904 903
f 856 857 905 904
f 857 858 906 905
f 858 859 907 906
f 859 860 908 907
f 860 861 909 908
f 861 862 910 909
f 862 863 911 910
f 863 864 912 911
f 864 817 865 912
f 865 866 914 913
f 866 867 915 914
f 867 868 916 915
f 868 869 917 916
f 869 870 918 917
f 870 871 919 918
f 871 872 920 919
f 872 873 921 920
f 873 874 922 921
f 874 875 923 922
f 875 876 924 923
f 876 877 925 924
f 877 878 926 925
f 878 879 927 926
f 879 880 928 927
f 880 881 929 928
f 881 882 930 929
f 882 883 931 930
f 883 884 932 931
f 884 885 933 932
f 885 886 934 933
f 886 887 935 934
f 887 888 936 935
f 888 889 937 936
f 889 890 938 937
f 890 891 939 938
f 891 892 940 939
f 892 893 941 940
f 893 894 942 941
f 894 895 943 942
f 895 896 944 943
f 896 897 945 944
f 897 898 946 945
f 898 899 947 946
f 899 900 948 947
f 900 901 949 948
f 901 902 950 949
f 902 903 951 950
f 903 904 952 951
f 904 905 953 952
f 905 906 954 953
f 906 907 955 954
f 907 908 956 955
f 908 909 957 956
f 909 910 958 957
f 910 911 959 958
f 911 912 960 959
f 912 865 913 960
f 913 914 962 961
f 914 915 963 962
f 915 916 964 963
f 916 917 965 964
f 917 918 966 965
f 918 919 967 966
f 919 920 968 967
f 920 921 969 968
f 921 922 970 969
f 922 923 971 970
f 923 924 972 971
f 924 925 973 972
f 925 926 974 973
f 926 927 975 974
f 927 928 976 975
f 928 929 977 976
f 929 930 978 977
f 930 931 979 978
f 931 932 980 979
f 932 933 981 980
f 933 934 982 981
f 934 935 983 982
f 935 936 984 983
f 936 937 985 984
f 937 938 986 985
f 938 939 987 986
f 939 940 988 987
f 940 941 989 988
f 941 942 990 989
f 942 943 991 990
f 943 944 992 991
f 944 945 993 992
f 945 946 994 993
f 946 947 995 994
f 947 948 996 995
f 948 949 997 996
f 949 950 998 997
f 950 951 999 998
f 951 952 1000 999
f 952 953 1001 1000
f 953 954 1002 1001
f 954 955 1003 1002
f 955 956 1004 1003
f 956 957 1005 1004
f 957 958 1006 1005
f 958 959 1007 1006
f 959 960 1008 1007
f 960 913 961 1008
f 961 962 1010 1009
f 962 963 1011 1010
f 963 964 1012 1011
f 964 965 1013 1012
f 965 966 1014 1013
f 966 967 1015 1014
f 967 968 1016 1015
f 968 969 1017 1016
f 969 970 1018 1017
f 970 971 1019 1018
f 971 972 1020 1019
f 972 973 1021 1020
f 973 974 1022 1021
f 974 975 1023 1022
f 975 976 1024 1023
f 976 977 1025 1024
f 977 978 1026 1025
f 978 979 1027 1026
f 979 980 1028 1027
f 980 981 1029 1028
f 981 982 1030 1029
f 982 983 1031 1030
f 983 984 1032 1031
f 984 985 1033 1032
f 985 986 1034 1033
f 986 987 1035 1034
f 987 988 1036 1035
f 988 989 1037 1036
f 989 990 1038 1037
f 990 991 1039 1038
f 991 992 1040 1039
f 992 993 1041 1040
f 993 994 1042 1041
f 994 995 1043 1042
f 995 996 1044 1043
f 996 997 1045 1044
f 997 998 1046 1045
f 998 999 1047 1046
f 999 1000 1048 1047
f 1000 1001 1049 1048
f 1001 1002 1050 1049
f 1002 1003 1051 1050
f 1003 1004 1052 1051
f 1004 1005 1053 1052
f 1005 1006 1054 1053
f 1006 1007 1055 1054
f 1007 1008 1056 1055
f 1008 961 1009 1056
f 1009 1010 1058 1057
f 1010 1011 1059 1058
f 1011 1012 1060 1059
f 1012 1013 1061 1060
f 1013 1014 1062 1061
f 1014 1015 1063 1062
f 1015 1016 1064 1063
f 1016 1017 1065 1064
f 1017 1018 1066 1065
f 1018 1019 1067 1066
f 1019 1020 1068 1067
f 1020 1021 1069 1068
f 1021 1022 1070 1069
f 1022 1023 1071 1070
f 1023 1024 1072 1071
f 1024 1025 1073 1072
f 1025 1026 1074 1073
f 1026 1027 1075 1074
f 1027 1028 1076 1075
f 1028 1029 1077 1076
f 1029 1030 1078 1077
f 1030 1031 1079 1078
f 1031 1032 1080 1079
f 1032 1033 1081 1080
f 1033 1034 1082 1081
f 1034 1035 1083 1082
f 1035 1036 1084 1083
f 1036 1037 1085 1084
f 1037 1038 1086 1085
f 1038 1039 1087 1086
f 1039 1040 1088 1087
f 1040 1041 1089 1088
f 1041 1042 1090 1089
f 1042 1043 1091 1090
f 1043 1044 1092 1091
f 1044 1045 1093 1092
f 1045 1046 1094 1093
f 1046 1047 1095 1094
f 1047 1048 1096 1095
f 1048 1049 1097 1096
f 1049 1050 1098 1097
f 1050 1051 1099 1098
f 1051 1052 1100 1099
f 1052 1053 1101 1100
f 1053 1054 1102 1101
f 1054 1055 1103 1102
f 1055 1056 1104 1103
f 1056 1009 1057 1104
f 1057 1058 1106 1105
f 1058 1059 1107 1106
f 1059 1060 1108 1107
f 1060 1061 1109 1108
f 1061 1062 1110 1109
f 1062 1063 1111 1110
f 1063 1064 1112 1111
f 1064 1065 1113 1112
f 1065 1066 1114 1113
f 1066 1067 1115 1114
f 1067 1068 1116 1115
f 1068 1069 1117 1116
f 1069 1070 1118 1117
f 1070 1071 1119 1118
f 1071 1072 1120 1119
f 1072 1073 1121 1120
f 1073 1074 1122 1121
f 1074 1075 1123 1122
f 1075 1076 1124 1123
f 1076 1077 1125 1124
f 1077 1078 1126 1125
f 1078 1079 1127 1126
f 1079 1080 1128 1127
f 1080 1081 1129 1128
f 1081 1082 1130 1129
f 1082 1083 1131 1130
f 1083 1084 1132 1131
f 1084 1085 1133 1132
f 1085 1086 1134 1133
f 1086 1087 1135 1134
f 1087 1088 1136 1135
f 1088 1089 1137 1136
f 1089 1090 1138 1137
f 1090 1091 1139 1138
f 1091 1092 1140 1139
f 1092 1093 1141 1140
f 1093 1094 1142 1141
f 1094 1095 1143 1142
f 1095 1096 1144 1143
f 1096 1097 1145 1144
f 1097 1098 1146 1145
f 1098 1099 1147 1146
f 1099 1100 1148 1147
f 1100 1101 1149 1148
f 1101 1102 1150 1149
f 1102 1103 1151 1150
f 1103 1104 1152 1151
f 1104 1057 1105 1152
f 1105 1106 1154 1153
f 1106 1107 1155 1154
f 1107 1108 1156 1155
f 1108 1109 1157 1156
f 1109 1110 1158 1157
f 1110 1111 1159 1158
f 1111 1112 1160 1159
f 1112 1113 1161 1160
f 1113 1114 1162 1161
f 1114 1115 1163 1162
f 1115 1116 1164 1163
f 1116 1117 1165 1164
f 1117 1118 1166 1165
f 1118 1119 1167 1166
f 1119 1120 1168 1167
f 1120 1121 1169 1168
f 1121 1122 1170 1169
f 1122 1123 1171 1170
f 1123 1124 1172 1171
f 1124 1125 1173 1172
f 1125 1126 1174 1173
f 1126 1127 1175 1174
f 1127 1128 1176 1175
f 1128 1129 1177 1176
f 1129 1130 1178 1177
f 1130 1131 1179 1178
f 1131 1132 1180 1179
f 1132 1133 1181 1180
f 1133 1134 1182 1181
f 1134 1135 1183 1182
f 1135 1136 1184 1183
f 1136 1137 1185 1184
f 1137 1138 1186 1185
f 1138 1139 1187 1186
f 1139 1140 1188 1187
f 1140 1141 1189 1188
f 1141 1142 1190 1189
f 1142 1143 1191 1190
f 1143 1144 1192 1191
f 1144 1145 1193 1192
f 1145 1146 1194 1193
f 1146 1147 1195 1194
f 1147 1148 1196 1195
f 1148 1149 1197 1196
f 1149 1150 1198 1197
f 1150 1151 1199 1198
f 1151 1152 1200 1199
f 1152 1105 1153 1200
f 1153 1154 1202 1201
f 1154 1155 1203 1202
f 1155 1156 1204 1203
f 1156 1157 1205 1204
f 1157 1158 1206 1205
f 1158 1159 1207 1206
f 1159 1160 1208 1207
f 1160 1161 1209 1208
f 1161 1162 1210 1209
f 1162 1163 1211 1210
f 1163 1164 1212 1211
f 1164 1165 1213 1212
f 1165 1166 1214 1213
f 1166 1167 1215 1214
f 1167 1168 1216 1215
f 1168 1169 1217 1216
f 1169 1170 1218 1217
f 1170 1171 1219 1218
f 1171 1172 1220 1219
f 1172 1173 1221 1220
f 1173 1174 1222 1221
f 1174 1175 1223 1222
f 1175 1176 1224 1223
f 1176 1177 1225 1224
f 1177 1178 1226 1225
f 1178 1179 1227 1226
f 1179 1180 1228 1227
f 1180 1181 1229 1228
f 1181 1182 1230 1229
f 1182 1183 1231 1230
f 1183 1184 1232 1231
f 1184 1185 1233 1232
f 1185 1186 1234 1233
f 1186 1187 1235 1234
f 1187 1188 1236 1235
f 1188 1189 1237 1236
f 1189 1190 1238 1237
f 1190 1191 1239 1238
f 1191 1192 1240 1239
f 1192 1193 1241 1240
f 1193 1194 1242 1241
f 1194 1195 1243 1242
f 1195 1196 1244 1243
f 1196 1197 1245 1244
f 1197 1198 1246 1245
f 1198 1199 1247 1246
f 1199 1200 1248 1247
f 1200 1153 1201 1248
f 1201 1202 1250 1249
f 1202 1203 1251 1250
f 1203 1204 1252 1251
f 1204 1205 1253 1252
f 1205 1206 1254 1253
f 1206 1207 1255 1254
f 1207 1208 1256 1255
f 1208 1209 1257 1256
f 1209 1210 1258 1257
f 1210 1211 1259 1258
f 1211 1212 1260 1259
f 1212 1213 1261 1260
f 1213 1214 1262 1261
f 1214 1215 1263 1262
f 1215 1216 1264 1263
f 1216 1217 1265 1264
f 1217 1218 1266 1265
f 1218 1219 1267 1266
f 1219 1220 1268 1267
f 1220 1221 1269 1268
f 1221 1222 1270 1269
f 1222 1223 1271 1270
f 1223 1224 1272 1271
f 1224 1225 1273 1272
f 1225 1226 1274 1273
f 1226 1227 1275 1274
f 1227 1228 1276 1275
f 1228 1229 1277 1276
f 1229 1230 1278 1277
f 1230 1231 1279 1278
f 1231 1232 1280 1279
f 1232 1233 1281 1280
f 1233 1234 1282 1281
f 1234 1235 1283 1282
f 1235 1236 1284 1283
f 1236 1237 1285 1284
f 1237 1238 1286 1285
f 1238 1239 1287 1286
f 1239 1240 1288 1287
f 1240 1241 1289 1288
f 1241 1242 1290 1289
f 1242 1243 1291 1290
f 1243 1244 1292 1291
f 1244 1245 1293 1292
f 1245 1246 1294 1293
f 1246 1247 1295 1294
f 1247 1248 1296 1295
f 1248 1201 1249 1296
f 1249 1250 1298 1297
f 1250 1251 1299 1298
f 1251 1252 1300 1299
f 1252 1253 1301 1300
f 1253 1254 1302 1301
f 1254 1255 1303 1302
f 1255 1256 1304 1303
f 1256 1257 1305 1304
f 1257 1258 1306 1305
f 1258 1259 1307 1306
f 1259 1260 1308 1307
f 1260 1261 1309 1308
f 1261 1262 1310 1309
f 1262 1263 1311 1310
f 1263 1264 1312 1311
f 1264 1265 1313 1312
f 1265 1266 1314 1313
f 1266 1267 1315 1314
f 1267 1268 1316 1315
f 1268 1269 1317 1316
f 1269 1270 1318 1317
f 1270 1271 1319 1318
f 1271 1272 1320 1319
f 1272 1273 1321 1320
f 1273 1274 1322 1321
f 1274 1275 1323 1322
f 1275 1276 1324 1323
f 1276 1277 1325 1324
f 1277 1278 1326 1325
f 1278 1279 1327 1326
f 1279 1280 1328 1327
f 1280 1281 1329 1328
f 1281 1282 1330 1329
f 1282 1283 1331 1330
f 1283 1284 1332 1331
f 1284 1285 1333 1332
f 1285 1286 1334 1333
f 1286 1287 1335 1334
f 1287 1288 1336 1335
f 1288 1289 1337 1336
f 1289 1290 1338 1337
f 1290 1291 1339 1338
f 1291 1292 1340 1339
f 1292 1293 1341 1340
f 1293 1294 1342 1341
f 1294 1295 1343 1342
f 1295 1296 1344 1343
f 1296 1249 1297 1344
f 1297 1298 1346 1345
f 1298 1299 1347 1346
f 1299 1300 1348 1347
f 1300 1301 1349 1348
f 1301 1302 1350 1349
f 1302 1303 1351 1350
f 1303 1304 1352 1351
f 1304 1305 1353 1352
f 1305 1306 1354 1353
f 1306 1307 1355 1354
f 1307 1308 1356 1355
f 1308 1309 1357 1356
f 1309 1310 1358 1357
f 1310 1311 1359 1358
f 1311 1312 1360 1359
f 1312 1313 1361 1360
f 1313 1314 1362 1361
f 1314 1315 1363 1362
f 1315 1316 1364 1363
f 1316 1317 1365 1364
f 1317 1318 1366 1365
f 1318 1319 1367 1366
f 1319 1320 1368 1367
f 1320 1321 1369 1368
f 1321 1322 1370 1369
f 1322 1323 1371 1370
f 1323 1324 1372 1371
f 1324 1325 1373 1372
f 1325 1326 1374 1373
f 1326 1327 1375 1374
f 1327 1328 1376 1375
f 1328 1329 1377 1376
f 1329 1330 1378 1377
f 1330 1331 1379 1378
f 1331 1332 1380 1379
f 1332 1333 1381 1380
f 1333 1334 1382 1381
f 1334 1335 1383 1382
f 1335 1336 1384 1383
f 1336 1337 1385 1384
f 1337 1338 1386 1385
f 1338 1339 1387 1386
f 1339 1340 1388 1387
f 1340 1341 1389 1388
f 1341 1342 1390 1389
f 1342 1343 1391 1390
f 1343 1344 1392 1391
f 1344 1297 1345 1392
f 1345 1346 1394 1393
f 1346 1347 1395 1394
f 1347 1348 1396 1395
f 1348 1349 1397 1396
f 1349 1350 1398 1397
f 1350 1351 1399 1398
f 1351 1352 1400 1399
f 1352 1353 1401 1400
f 1353 1354 1402 1401
f 1354 1355 1403 1402
f 1355 1356 1404 1403
f 1356 1357 1405 1404
f 1357 1358 1406 1405
f 1358 1359 1407 1406
f 1359 1360 1408 1407
f 1360 1361 1409 1408
f 1361 1362 1410 1409
f 1362 1363 1411 1410
f 1363 1364 1412 1411
f 1364 1365 1413 1412
f 1365 1366 1414 1413
f 1366 1367 1415 1414
f 1367 1368 1416 1415
f 1368 1369 1417 1416
f 1369 1370 1418 1417
f 1370 1371 1419 1418
f 1371 1372 1420 1419
f 1372 1373 1421 1420
f 1373 1374 1422 1421
f 1374 1375 1423 1422
f 1375 1376 1424 1423
f 1376 1377 1425 1424
f 1377 1378 1426 1425
f 1378 1379 1427 1426
f 1379 1380 1428 1427
f 1380 1381 1429 1428
f 1381 1382 1430 1429
f 1382 1383 1431 1430
f 1383 1384 1432 1431
f 1384 1385 1433 1432
f 1385 1386 1434 1433
f 1386 1387 1435 1434
f 1387 1388 1436 1435
f 1388 1389 1437 1436
f 1389 1390 1438 1437
f 1390 1391 1439 1438
f 1391 1392 1440 1439
f 1392 1345 1393 1440
f 1393 1394 1442 1441
f 1394 1395 1443 1442
f 1395 1396 1444 1443
f 1396 1397 1445 1444
f 1397 1398 1446 1445
f 1398 1399 1447 1446
f 1399 1400 1448 1447
f 1400 1401 1449 1448
f 1401 1402 1450 1449
f 1402 1403 1451 1450
f 1403 1404 1452 1451
f 1404 1405 1453 1452
f 1405 1406 1454 1453
f 1406 1407 1455 1454
f 1407 1408 1456 1455
f 1408 1409 1457 1456
f 1409 1410 1458 1457
f 1410 1411 1459 1458
f 1411 1412 1460 1459
f 1412 1413 1461 1460
f 1413 1414 1462 1461
f 1414 1415 1463 1462
f 1415 1416 1464 1463
f 1416 1417 1465 1464
f 1417 1418 1466 1465
f 1418 1419 1467 1466
f 1419 1420 1468 1467
f 1420 1421 1469 1468
f 1421 1422 1470 1469
f 1422 1423 1471 1470
f 1423 1424 1472 1471
f 1424 1425 1473 1472
f 1425 1426 1474 1473
f 1426 1427 1475 1474
f 1427 1428 1476 1475
f 1428 1429 1477 1476
f 1429 1430 1478 1477
f 1430 1431 1479 1478
f 1431 1432 1480 1479
f 1432 1433 1481 1480
f 1433 1434 1482 1481
f 1434 1435 1483 1482
f 1435 1436 1484 1483
f 1436 1437 1485 1484
f 1437 1438 1486 1485
f 1438 1439 1487 1486
f 1439 1440 1488 1487
f 1440 1393 1441 1488
f 1441 1442 1490 1489
f 1442 1443 1491 1490
f 1443 1444 1492 1491
f 1444 1445 1493 1492
f 1445 1446 1494 1493
f 1446 1447 1495 1494
f 1447 1448 1496 1495
f 1448 1449 1497 1496
f 1449 1450 1498 1497
f 1450 1451 1499 1498
f 1451 1452 1500 1499
f 1452 1453 1501 1500
f 1453 1454 1502 1501
f 1454 1455 1503 1502
f 1455 1456 1504 1503
f 1456 1457 1505 1504
f 1457 1458 1506 1505
f 1458 1459 1507 1506
f 1459 1460 1508 1507
f 1460 1461 1509 1508
f 1461 1462 1510 1509
f 1462 1463 1511 1510
f 1463 1464 1512 1511
f 1464 1465 1513 1512
f 1465 1466 1514 1513
f 1466 1467 1515 1514
f 1467 1468 1516 1515
f 1468 1469 1517 1516
f 1469 1470 1518 1517
f 1470 1471 1519 1518
f 1471 1472 1520 1519
f 1472 1473 1521 1520
f 1473 1474 1522 1521
f 1474 1475 1523 1522
f 1475 1476 1524 1523
f 1476 1477 1525 1524
f 1477 1478 1526 1525
f 1478 1479 1527 1526
f 1479 1480 1528 1527
f 1480 1481 1529 1528
f 1481 1482 1530 1529
f 1482 1483 1531 1530
f 1483 1484 1532 1531
f 1484 1485 1533 1532
f 1485 1486 1534 1533
f 1486 1487 1535 1534
f 1487 1488 1536 1535
f 1488 1441 1489 1536
f 1489 1490 1538 1537
f 1490 1491 1539 1538
f 1491 1492 1540 1539
f 1492 1493 1541 1540
f 1493 1494 1542 1541
f 1494 1495 1543 1542
f 1495 1496 1544 1543
f 1496 1497 1545 1544
f 1497 1498 1546 1545
f 1498 1499 1547 1546
f 1499 1500 1548 1547
f 1500 1501 1549 1548
f 1501 1502 1550 1549
f 1502 1503 1551 1550
f 1503 1504 1552 1551
f 1504 1505 1553 1552
f 1505 1506 1554 1553
f 1506 1507 1555 1554
f 1507 1508 1556 1555
f 1508 1509 1557 1556
f 1509 1510 1558 1557
f 1510 1511 1559 1558
f 1511 1512 1560 1559
f 1512 1513 1561 1560
f 1513 1514 1562 1561
f 1514 1515 1563 1562
f 1515 1516 1564 1563
f 1516 1517 1565 1564
f 1517 1518 1566 1565
f 1518 1519 1567 1566
f 1519 1520 1568 1567
f 1520 1521 1569 1568
f 1521 1522 1570 1569
f 1522 1523 1571 1570
f 1523 1524 1572 1571
f 1524 1525 1573 1572
f 1525 1526 1574 1573
f 1526 1527 1575 1574
f 1527 1528 1576 1575
f 1528 1529 1577 1576
f 1529 1530 1578 1577
f 1530 1531 1579 1578
f 1531 1532 1580 1579
f 1532 1533 1581 1580
f 1533 1534 1582 1581
f 1534 1535 1583 1582
f 1535 1536 1584 1583
f 1536 1489 1537 1584
f 1537 1538 1586 1585
f 1538 1539 1587 1586
f 1539 1540 1588 1587
f 1540 1541 1589 1588
f 1541 1542 1590 1589
f 1542 1543 1591 1590
f 1543 1544 1592 1591
f 1544 1545 1593 1592
f 1545 1546 1594 1593
f 1546 1547 1595 1594
f 1547 1548 1596 1595
f 1548 1549 1597 1596
f 1549 1550 1598 1597
f 1550 1551 1599 1598
f 1551 1552 1600 1599
f 1552 1553 1601 1600
f 1553 1554 1602 1601
f 1554 1555 1603 1602
f 1555 1556 1604 1603
f 1556 1557 1605 1604
f 1557 1558 1606 1605
f 1558 1559 1607 1606
f 1559 1560 1608 1607
f 1560 1561 1609 1608
f 1561 1562 1610 1609
f 1562 1563 1611 1610
f 1563 1564 1612 1611
f 1564 1565 1613 1612
f 1565 1566 1614 1613
f 1566 1567 1615 1614
f 1567 1568 1616 1615
f 1568 1569 1617 1616
f 1569 1570 1618 1617
f 1570 1571 1619 1618
f 1571 1572 1620 1619
f 1572 1573 1621 1620
f 1573 1574 1622 1621
f 1574 1575 1623 1622
f 1575 1576 1624 1623
f 1576 1577 1625 1624
f 1577 1578 1626 1625
f 1578 1579 1627 1626
f 1579 1580 1628 1627
f 1580 1581 1629 1628
f 1581 1582 1630 1629
f 1582 1583 1631 1630
f 1583 1584 1632 1631
f 1584 1537 1585 1632
f 1585 1586 1634 1633
f 1586 1587 1635 1634
f 1587 1588 1636 1635
f 1588 1589 1637 1636
f 1589 1590 1638 1637
f 1590 1591 1639 1638
f 1591 1592 1640 1639
f 1592 1593 1641 1640
f 1593 1594 1642 1641
f 1594 1595 1643 1642
f 1595 1596 1644 1643
f 1596 1597 1645 1644
f 1597 1598 1646 1645
f 1598 1599 1647 1646
f 1599 1600 1648 1647
f 1600 1601 1649 1648
f 1601 1602 1650 1649
f 1602 1603 1651 1650
f 1603 1604 1652 1651
f 1604 1605 1653 1652
f 1605 1606 1654 1653
f 1606 1607 1655 1654
f 1607 1608 1656 1655
f 1608 1609 1657 1656
f 1609 1610 1658 1657
f 1610 1611 1659 1658
f 1611 1612 1660 1659
f 1612 1613 1661 1660
f 1613 1614 1662 1661
f 1614 1615 1663 1662
f 1615 1616 1664 1663
f 1616 1617 1665 1664
f 1617 1618 1666 1665
f 1618 1619 1667 1666
f 1619 1620 1668 1667
f 1620 1621 1669 1668
f 1621 1622 1670 1669
f 1622 1623 1671 1670
f 1623 1624 1672 1671
f 1624 1625 1673 1672
f 1625 1626 1674 1673
f 1626 1627 1675 1674
f 1627 1628 1676 1675
f 1628 1629 1677 1676
f 1629 1630 1678 1677
f 1630 1631 1679 1678
f 1631 1632 1680 1679
f 1632 1585 1633 1680
f 1633 1634 1682 1681
f 1634 1635 1683 1682
f 1635 1636 1684 1683
f 1636 1637 1685 1684
f 1637 1638 1686 1685
f 1638 1639 1687 1686
f 1639 1640 1688 1687
f 1640 1641 1689 1688
f 1641 1642 1690 1689
f 1642 1643 1691 1690
f 1643 1644 1692 1691
f 1644 1645 1693 1692
f 1645 1646 1694 1693
f 1646 1647 1695 1694
f 1647 1648 1696 1695
f 1648 1649 1697 1696
f 1649 1650 1698 1697
f 1650 1651 1699 1698
f 1651 1652 1700 1699
f 1652 1653 1701 1700
f 1653 1654 1702 1701
f 1654 1655 1703 1702
f 1655 1656 1704 1703
f 1656 1657 1705 1704
f 1657 1658 1706 1705
f 1658 1659 1707 1706
f 1659 1660 1708 1707
f 1660 1661 1709 1708
f 1661 1662 1710 1709
f 1662 1663 1711 1710
f 1663 1664 1712 1711
f 1664 1665 1713 1712
f 1665 1666 1714 1713
f 1666 1667 1715 1714
f 1667 1668 1716 1715
f 1668 1669 1717 1716
f 1669 1670 1718 1717
f 1670 1671 1719 1718
f 1671 1672 1720 1719
f 1672 1673 1721 1720
f 1673 1674 1722 1721
f 1674 1675 1723 1722
f 1675 1676 1724 1723
f 1676 1677 1725 1724
f 1677 1678 1726 1725
f 1678 1679 1727 1726
f 1679 1680 1728 1727
f 1680 1633 1681 1728
f 1681 1682 1730 1729
f 1682 1683 1731 1730
f 1683 1684 1732 1731
f 1684 1685 1733 1732
f 1685 1686 1734 1733
f 1686 1687 1735 1734
f 1687 1688 1736 1735
f 1688 1689 1737 1736
f 1689 1690 1738 1737
f 1690 1691 1739 1738
f 1691 1692 1740 1739
f 1692 1693 1741 1740
f 1693 1694 1742 1741
f 1694 1695 1743 1742
f 1695 1696 1744 1743
f 1696 1697 1745 1744
f 1697 1698 1746 1745
f 1698 1699 1747 1746
f 1699 1700 1748 1747
f 1700 1701 1749 1748
f 1701 1702 1750 1749
f 1702 1703 1751 1750
f 1703 1704 1752 1751
f 1704 1705 1753 1752
f 1705 1706 1754 1753
f 1706 1707 1755 1754
f 1707 1708 1756 1755
f 1708 1709 1757 1756
f 1709 1710 1758 1757
f 1710 1711 1759 1758
f 1711 1712 1760 1759
f 1712 1713 1761 1760
f 1713 1714 1762 1761
f 1714 1715 1763 1762
f 1715 1716 1764 1763
f 1716 1717 1765 1764
f 1717 1718 1766 1765
f 1718 1719 1767 1766
f 1719 1720 1768 1767
f 1720 1721 1769 1768
f 1721 1722 1770 1769
f 1722 1723 1771 1770
f 1723 1724 1772 1771
f 1724 1725 1773 1772
f 1725 1726 1774 1773
f 1726 1727 1775 1774
f 1727 1728 1776 1775
f 1728 1681 1729 1776
f 1729 1730 1778 1777
f 1730 1731 1779 1778
f 1731 1732 1780 1779
f 1732 1733 1781 1780
f 1733 1734 1782 1781
f 1734 1735 1783 1782
f 1735 1736 1784 1783
f 1736 1737 1785 1784
f 1737 1738 1786 1785
f 1738 1739 1787 1786
f 1739 1740 1788 1787
f 1740 1741 1789 1788
f 1741 1742 1790 1789
f 1742 1743 1791 1790
f 1743 1744 1792 1791
f 1744 1745 1793 1792
f 1745 1746 1794 1793
f 1746 1747 1795 1794
f 1747 1748 1796 1795
f 1748 1749 1797 1796
f 1749 1750 1798 1797
f 1750 1751 1799 1798
f 1751 1752 1800 1799
f 1752 1753 1801 1800
f 1753 1754 1802 1801
f 1754 1755 1803 1802
f 1755 1756 1804 1803
f 1756 1757 1805 1804
f 1757 1758 1806 1805
f 1758 1759 1807 1806
f 1759 1760 1808 1807
f 1760 1761 1809 1808
f 1761 1762 1810 1809
f 1762 1763 1811 1810
f 1763 1764 1812 1811
f 1764 1765 1813 1812
f 1765 1766 1814 1813
f 1766 1767 1815 1814
f 1767 1768 1816 1815
f 1768 1769 1817 1816
f 1769 1770 1818 1817
f 1770 1771 1819 1818
f 1771 1772 1820 1819
f 1772 1773 1821 1820
f 1773 1774 1822 1821
f 1774 1775 1823 1822
f 1775 1776 1824 1823
f 1776 1729 1777 1824
f 1777 1778 1826 1825
f 1778 1779 1827 1826
f 1779 1780 1828 1827
f 1780 1781 1829 1828
f 1781 1782 1830 1829
f 1782 1783 1831 1830
f 1783 1784 1832 1831
f 1784 1785 1833 1832
f 1785 1786 1834 1833
f 1786 1787 1835 1834
f 1787 1788 1836 1835
f 1788 1789 1837 1836
f 1789 1790 1838 1837
f 1790 1791 1839 1838
f 1791 1792 1840 1839
f 1792 1793 1841 1840
f 1793 1794 1842 1841
f 1794 1795 1843 1842
f 1795 1796 1844 1843
f 1796 1797 1845 1844
f 1797 1798 1846 1845
f 1798 1799 1847 1846
f 1799 1800 1848 1847
f 1800 1801 1849 1848
f 1801 1802 1850 1849
f 1802 1803 1851 1850
f 1803 1804 1852 1851
f 1804 1805 1853 1852
f 1805 1806 1854 1853
f 1806 1807 1855 1854
f 1807 1808 1856 1855
f 1808 1809 1857 1856
f 1809 1810 1858 1857
f 1810 1811 1859 1858
f 1811 1812 1860 1859
f 1812 1813 1861 1860
f 1813 1814 1862 1861
f 1814 1815 1863 1862
f 1815 1816 1864 1863
f 1816 1817 1865 1864
f 1817 1818 1866 1865
f 1818 1819 1867 1866
f 1819 1820 1868 1867
f 1820 1821 1869 1868
f 1821 1822 1870 1869
f 1822 1823 1871 1870
f 1823 1824 1872 1871
f 1824 1777 1825 1872
f 1825 1826 1874 1873
f 1826 1827 1875 1874
f 1827 1828 1876 1875
f 1828 1829 1877 1876
f 1829 1830 1878 1877
f 1830 1831 1879 1878
f 1831 1832 1880 1879
f 1832 1833 1881 1880
f 1833 1834 1882 1881
f 1834 1835 1883 1882
f 1835 1836 1884 1883
f 1836 1837 1885 1884
f 1837 1838 1886 1885
f 1838 1839 1887 1886
f 1839 1840 1888 1887
f 1840 1841 1889 1888
f 1841 1842 1890 1889
f 1842 1843 1891 1890
f 1843 1844 1892 1891
f 1844 1845 1893 1892
f 1845 1846 1894 1893
f 1846 1847 1895 1894
f 1847 1848 1896 1895
f 1848 1849 1897 1896
f 1849 1850 1898 1897
f 1850 1851 1899 1898
f 1851 1852 1900 1899
f 1852 1853 1901 1900
f 1853 1854 1902 1901
f 1854 1855 1903 1902
f 1855 1856 1904 1903
f 1856 1857 1905 1904
f 1857 1858 1906 1905
f 1858 1859 1907 1906
f 1859 1860 1908 1907
f 1860 1861 1909 1908
f 1861 1862 1910 1909
f 1862 1863 1911 1910
f 1863 1864 1912 1911
f 1864 1865 1913 1912
f 1865 1866 1914 1913
f 1866 1867 1915 1914
f 1867 1868 1916 1915
f 1868 1869 1917 1916
f 1869 1870 1918 1917
f 1870 1871 1919 1918
f 1871 1872 1920 1919
f 1872 1825 1873 1920
f 1921 2 1
f 1921 3 2
f 1921 4 3
f 1921 5 4
f 1921 6 5
f 1921 7 6
f 1921 8 7
f 1921 9 8
f 1921 10 9
f 1921 11 10
f 1921 12 11
f 1921 13 12
f 1921 14 13
f 1921 15 14
f 1921 16 15
f 1921 17 16
f 1921 18 17
f 1921 19 18
f 1921 20 19
f 1921 21 20
f 1921 22 21
f 1921 23 22
f 1921 24 23
f 1921 25 24
f 1921 26 25
f 1921 27 26
f 1921 28 27
f 1921 29 28
f 1921 30 29
f 1921 31 30
f 1921 32 31
f 1921 33 32
f 1921 34 33
f 1921 35 34
f 1921 36 35
f 1921 37 36
f 1921 38 37
f 1921 39 38
f 1921 40 39
f 1921 41 40
f 1921 42 41
f 1921 43 42
f 1921 44 43
f 1921 45 44
f 1921 46 45
f 1921 47 46
f 1921 48 47
f 1921 1 48
f 1922 1873 1874
f 1922 1874 1875
f 1922 1875 1876
f 1922 1876 1877
f 1922 1877 1878
f 1922 1878 1879
f 1922 1879 1880
f 1922 1880 1881
f 1922 1881 1882
f 1922 1882 1883
f 1922 1883 1884
f 1922 1884 1885
f 1922 1885 1886
f 1922 1886 1887
f 1922 1887 1888
f 1922 1888 1889
f 1922 1889 1890
f 1922 1890 1891
f 1922 1891 1892
f 1922 1892 1893
f 1922 1893 1894
f 1922 1894 1895
f 1922 1895 1896
f 1922 1896 1897
f 1922 1897 1898
f 1922 1898 1899
f 1922 1899 1900
f 1922 1900 1901
f 1922 1901 1902
f 1922 1902 1903
f 1922 1903 1904
f 1922 1904 1905
f 1922 1905 1906
f 1922 1906 1907
f 1922 1907 1908
f 1922 1908 1909
f 1922 1909 1910
f 1922 1910 1911
f 1922 1911 1912
f 1922 1912 1913
f 1922 1913 1914
f 1922 1914 1915
f 1922 1915 1916
f 1922 1916 1917
f 1922 1917 1918
f 1922 1918 1919
f 1922 1919 1920
f 1922 1920 1873
